<svg xmlns="http://www.w3.org/2000/svg" viewBox="0 0 500 500"><g id="freepik--background-complete--inject-51"><rect x="38.73" y="243.57" width="26.48" height="11.19" style="fill:#ebebeb"></rect><rect x="23.96" y="257.68" width="26.48" height="11.19" style="fill:#ebebeb"></rect><rect x="434.79" y="257.68" width="26.48" height="11.19" style="fill:#ebebeb"></rect><rect x="420.02" y="39.22" width="26.48" height="11.19" style="fill:#ebebeb"></rect><rect x="434.79" y="53.33" width="26.48" height="11.19" style="fill:#ebebeb"></rect><rect x="38.73" y="39.22" width="26.48" height="11.19" style="fill:#ebebeb"></rect><rect x="345.47" y="298.65" width="88.24" height="122.11" style="fill:#ebebeb"></rect><rect x="341.19" y="294.12" width="96.79" height="4.53" style="fill:#dbdbdb"></rect><rect x="437.98" y="294.12" width="30.44" height="4.53" style="fill:#ebebeb"></rect><rect x="433.7" y="298.65" width="29.9" height="122.11" style="fill:#dbdbdb"></rect><path d="M424.22,355.18H355V316h69.27Zm-69-.25H424V316.27H355.2Z" style="fill:#c7c7c7"></path><rect x="379.92" y="327.47" width="13.48" height="7.75" style="fill:#c7c7c7"></rect><path d="M397.51,334.76H383.78v-6.83h13.73ZM384,334.51h13.23v-6.33H384Z" style="fill:#c7c7c7"></path><path d="M424.22,404.34H355V365.18h69.27Zm-69-.25H424V365.43H355.2Z" style="fill:#c7c7c7"></path><rect x="379.92" y="376.63" width="13.48" height="7.75" style="fill:#c7c7c7"></rect><path d="M397.51,383.92H383.78v-6.83h13.73ZM384,383.67h13.23v-6.33H384Z" style="fill:#c7c7c7"></path><circle cx="106.77" cy="69.96" r="30.74" transform="translate(-18.19 95.99) rotate(-45)" style="fill:#ebebeb"></circle><circle cx="108.18" cy="70.64" r="29.33" transform="translate(-18.27 97.18) rotate(-45)" style="fill:#dbdbdb"></circle><circle cx="108.18" cy="70.64" r="27.48" transform="translate(-20.94 66.03) rotate(-31.1)" style="fill:#fff"></circle><path d="M135,64.81c-12.51,7.58-33.08,20-44.57,26.84A27.64,27.64,0,0,1,83,81.55l38-35.23A27.45,27.45,0,0,1,135,64.81Z" style="fill:#ebebeb;opacity:0.5"></path><path d="M135.64,71.6a27.32,27.32,0,0,1-1.82,8.93L99.55,96.74a27.28,27.28,0,0,1-4.33-1.86C105.57,88.9,124.49,78,135.64,71.6Z" style="fill:#ebebeb;opacity:0.5"></path><rect x="107.91" y="45.16" width="0.53" height="4.16" style="fill:#c7c7c7"></rect><rect x="96.21" y="48.29" width="0.53" height="4.17" transform="translate(-12.26 54.98) rotate(-30)" style="fill:#c7c7c7"></rect><rect x="87.65" y="56.86" width="0.53" height="4.17" transform="translate(-7.09 105.6) rotate(-60)" style="fill:#c7c7c7"></rect><rect x="82.69" y="70.38" width="4.16" height="0.53" style="fill:#c7c7c7"></rect><rect x="85.83" y="82.08" width="4.17" height="0.53" transform="translate(-29.4 55.01) rotate(-30.01)" style="fill:#c7c7c7"></rect><rect x="94.39" y="90.64" width="4.16" height="0.53" transform="translate(-30.47 129.07) rotate(-60.03)" style="fill:#c7c7c7"></rect><rect x="107.91" y="91.96" width="0.53" height="4.17" style="fill:#c7c7c7"></rect><rect x="119.61" y="88.83" width="0.53" height="4.16" transform="translate(-29.39 72.12) rotate(-30)" style="fill:#c7c7c7"></rect><rect x="128.18" y="80.26" width="0.53" height="4.17" transform="translate(-7.09 152.4) rotate(-60)" style="fill:#c7c7c7"></rect><rect x="129.5" y="70.38" width="4.16" height="0.53" style="fill:#c7c7c7"></rect><rect x="126.36" y="58.68" width="4.17" height="0.53" transform="translate(-12.26 72.18) rotate(-30.02)" style="fill:#c7c7c7"></rect><rect x="117.8" y="50.11" width="4.17" height="0.53" transform="translate(16.35 129.05) rotate(-60.03)" style="fill:#c7c7c7"></rect><polygon points="108.58 47.04 109.48 72.5 106.87 72.46 107.87 47.03 108.58 47.04" style="fill:#c7c7c7"></polygon><polygon points="124.43 61.77 107.31 72.69 106.06 70.41 124.09 61.14 124.43 61.77" style="fill:#a6a6a6"></polygon><path d="M109.07,70.64a.89.89,0,1,1-.89-.89A.89.89,0,0,1,109.07,70.64Z" style="fill:#c7c7c7"></path><rect x="183.49" y="39.22" width="133.02" height="203.96" style="fill:#dbdbdb"></rect><rect x="190.74" y="47.39" width="56.17" height="90.72" style="fill:#fff"></rect><rect x="253.09" y="47.39" width="56.17" height="90.72" style="fill:#fff"></rect><rect x="190.74" y="144.29" width="56.17" height="90.72" style="fill:#fff"></rect><rect x="253.09" y="144.29" width="56.17" height="90.72" style="fill:#fff"></rect><rect x="183.49" y="39.22" width="31.51" height="291.8" style="fill:#ebebeb"></rect><polygon points="209.02 53.09 209.27 84.64 209.35 116.19 209.52 179.29 209.36 242.39 209.27 273.94 209.02 305.49 208.78 273.94 208.69 242.39 208.53 179.29 208.69 116.19 208.78 84.64 209.02 53.09" style="fill:#fff"></polygon><polygon points="194.56 60.41 194.8 88.58 194.94 116.75 195.06 173.09 194.94 229.44 194.8 257.61 194.56 285.78 194.31 257.61 194.17 229.44 194.06 173.09 194.17 116.75 194.31 88.58 194.56 60.41" style="fill:#fff"></polygon><polygon points="201.79 67.06 202.03 100.04 202.12 133.03 202.29 199 202.12 264.98 202.03 297.96 201.79 330.95 201.55 297.96 201.46 264.98 201.29 199 201.46 133.03 201.55 100.04 201.79 67.06" style="fill:#fff"></polygon><polygon points="189.18 54.75 189.42 89.28 189.51 123.8 189.68 192.85 189.51 261.9 189.42 296.43 189.18 330.95 188.93 296.43 188.84 261.9 188.68 192.85 188.84 123.8 188.93 89.28 189.18 54.75" style="fill:#fff"></polygon><rect x="285" y="39.22" width="31.51" height="291.8" transform="translate(601.51 370.23) rotate(180)" style="fill:#ebebeb"></rect><polygon points="290.98 53.09 291.22 84.64 291.31 116.19 291.48 179.29 291.31 242.39 291.22 273.94 290.98 305.49 290.73 273.94 290.64 242.39 290.48 179.29 290.64 116.19 290.73 84.64 290.98 53.09" style="fill:#fff"></polygon><polygon points="305.44 60.41 305.69 88.58 305.83 116.75 305.94 173.09 305.83 229.44 305.69 257.61 305.44 285.78 305.2 257.61 305.06 229.44 304.94 173.09 305.06 116.75 305.2 88.58 305.44 60.41" style="fill:#fff"></polygon><polygon points="298.21 67.06 298.45 100.04 298.54 133.03 298.71 199 298.54 264.98 298.45 297.96 298.21 330.95 297.96 297.96 297.88 264.98 297.71 199 297.88 133.03 297.97 100.04 298.21 67.06" style="fill:#fff"></polygon><polygon points="310.82 54.75 311.07 89.28 311.15 123.8 311.32 192.85 311.16 261.9 311.07 296.43 310.82 330.95 310.58 296.43 310.49 261.9 310.32 192.85 310.49 123.8 310.58 89.28 310.82 54.75" style="fill:#fff"></polygon></g><g id="freepik--Floor--inject-51"><polygon points="31.41 420.76 86.06 420.51 140.71 420.43 250 420.26 359.3 420.43 413.94 420.51 468.59 420.76 413.94 421 359.3 421.09 250 421.26 140.71 421.09 86.06 421 31.41 420.76" style="fill:#263238"></polygon></g><g id="freepik--Shadow--inject-51"><ellipse cx="250" cy="450.12" rx="191.01" ry="18.34" style="fill:#ebebeb"></ellipse></g><g id="freepik--Plant--inject-51"><path d="M74.51,357.21s-17.31-3.92-26.8-12.67-14.8-24.4-14.8-24.4a147.44,147.44,0,0,1,19.42,5.1,32.73,32.73,0,0,1,5.88,8.3,39.62,39.62,0,0,0,0-5.94,26.43,26.43,0,0,1,6.17,3.75C72.29,338.23,74.51,357.21,74.51,357.21Z" style="fill:#FFC727"></path><path d="M43.73,327.75c-2.36-1.63-4.77-3.21-7.12-4.86a.14.14,0,0,1,.15-.23c4.46,2.67,8.86,5.52,13.11,8.5,1.48,1,2.94,2.12,4.38,3.22l-.3-.51c-.52-.87-1.07-1.72-1.62-2.57a36.69,36.69,0,0,0-3.67-4.91c0-.06,0-.14.08-.08,1.35,1.55,2.7,3.09,3.93,4.74.58.78,1.13,1.6,1.64,2.43.27.43.53.86.78,1.3.09.15.18.3.26.45,2.24,1.76,4.42,3.59,6.5,5.53q1.92,1.8,3.72,3.72c-.67-2.1-1.25-4.22-2-6.28,0-.07.09-.1.11,0,.76,2.16,1.58,4.34,2.17,6.56,1.32,1.44,2.59,2.92,3.78,4.47l-.06-.29c-.19-.81-.4-1.63-.62-2.44-.42-1.56-.88-3.12-1.41-4.65A27,27,0,0,0,62.86,333c0-.06,0-.14.09-.08a33.79,33.79,0,0,1,6.63,13.85c.18.73.36,1.47.53,2.22.09.39.19.79.26,1.19.52.71,1,1.42,1.52,2.16a75,75,0,0,1,7.33,14.36A164.23,164.23,0,0,1,84.77,384c0,.12-.14.15-.18,0-3.38-10.13-6.84-20.4-12.64-29.46-1.22-1.91-2.55-3.75-4-5.53a32.69,32.69,0,0,1-8.42-1.68,37.32,37.32,0,0,1-8.44-4.07,52.65,52.65,0,0,1-4.32-3.27.06.06,0,1,1,.07-.09,34.45,34.45,0,0,0,7.93,4.8,43,43,0,0,0,8.74,2.93c1.28.28,2.57.49,3.87.66a72,72,0,0,0-5.11-5.65c-.58-.59-1.18-1.15-1.78-1.71a41.5,41.5,0,0,0-6.41-3.67c-2.83-1.37-5.62-2.82-8.43-4.25-1.59-.8-3.16-1.63-4.76-2.41-.07,0,0-.13.06-.1,2.85,1.38,5.74,2.66,8.61,4,2.71,1.24,5.44,2.48,8,3.94l.32.19c-2.34-2-4.77-4-7.25-5.86Q47.27,330.21,43.73,327.75Z" style="fill:#263238"></path><path d="M44.71,336.68c1.41.61,2.84,1.16,4.24,1.81s2.79,1.46,4.15,2.26c.06,0,0,.12-.06.09-1.38-.66-2.78-1.28-4.14-2s-2.79-1.46-4.22-2.09C44.61,336.76,44.64,336.65,44.71,336.68Z" style="fill:#263238"></path><path d="M130.75,270a24.74,24.74,0,0,0-5.17,14.38c-.06,1.55.19,3.72.37,6.26a41.06,41.06,0,0,0-11.3,9.66,20.43,20.43,0,0,1,11.42-2.74,35.31,35.31,0,0,1-.66,5.18,19.41,19.41,0,0,0-7.35,1.45,16.29,16.29,0,0,1,6.62,1.32c-3.08,9.81-12.26,19.9-37.59,24.19A53.13,53.13,0,0,1,91.58,294C99.17,279.08,130.75,270,130.75,270Z" style="fill:#FFC727"></path><path d="M78.32,371.67Q79,365.39,80,359.12a252.22,252.22,0,0,1,5.11-24.79A98.65,98.65,0,0,1,88.73,323a15.32,15.32,0,0,1-.09-2c0-.81,0-1.62,0-2.43q0-2.44.24-4.86a57.38,57.38,0,0,1,1.55-9.5c.46-1.81,1-3.58,1.53-5.37,0-.07.14,0,.12,0a68.19,68.19,0,0,0-1.87,9.48,89.11,89.11,0,0,0-.86,9.51c0,.87,0,1.74,0,2.61,0,.37,0,.75,0,1.12a83.35,83.35,0,0,1,4.27-8.83,108.48,108.48,0,0,1,8.67-13,6.17,6.17,0,0,1,.21-1.42c.12-.57.24-1.13.37-1.7.26-1.15.55-2.3.86-3.45.63-2.29,1.47-4.51,2.18-6.78a.06.06,0,0,1,.12,0c-.67,2.24-1.12,4.56-1.63,6.85l-.75,3.39c-.13.56-.25,1.13-.36,1.7l0,.12c1-1.29,2.07-2.56,3.14-3.82,4.84-5.67,10.14-10.9,15.48-16.1.66-.64,1.33-1.26,2-1.89,0-.05.13,0,.08.09-5.1,5.32-10.13,10.7-14.89,16.34q-1.69,2-3.33,4.06c.57-.39,1.15-.77,1.73-1.14,1.47-1,3-1.9,4.5-2.77s3.09-1.7,4.67-2.48,3.36-1.46,4.92-2.37c.07,0,.13.07.06.1a35.91,35.91,0,0,0-4.62,2.56c-1.54.91-3.08,1.84-4.6,2.8s-3,1.87-4.46,2.83c-1.23.8-2.45,1.68-3.72,2.42A117.66,117.66,0,0,0,96.06,311a87.63,87.63,0,0,0-4.2,8l.91-.4,2.32-1,4.48-2c2.84-1.23,5.73-2.37,8.52-3.72a37.28,37.28,0,0,0,4.54-2.53c.07,0,.12.06.06.11-5.19,3.58-11,6.1-16.76,8.64l-2.5,1.11c-.68.3-1.37.64-2.07.9a89,89,0,0,0-4.29,11.74,241.69,241.69,0,0,0-5.51,24.51c-1.45,8.27-2.43,16.6-3.19,25-.1,1-.19,2.08-.31,3.13a.33.33,0,0,1-.66,0C77.44,380.14,77.88,375.89,78.32,371.67Z" style="fill:#263238"></path><path d="M93.73,301.71c.47-2.58,1.16-5.09,1.85-7.61a.06.06,0,1,1,.11,0c-.64,2.47-1.1,5-1.56,7.51s-.9,5.13-1.26,7.71c0,0-.07,0-.07,0A69.88,69.88,0,0,1,93.73,301.71Z" style="fill:#263238"></path><path d="M104.65,308.7a46.63,46.63,0,0,1,5.51-3.11c.92-.47,1.86-.93,2.8-1.38s2-.86,2.92-1.34a.06.06,0,0,1,.05.11c-.92.46-1.8,1-2.71,1.52L110.41,306c-1.86,1-3.68,2.1-5.62,2.9A.14.14,0,0,1,104.65,308.7Z" style="fill:#263238"></path><path d="M74.19,327.22s-16-3.82-23.37-14.57c-7-10.27-9.3-27.76-9.48-29.3.29,1.41,3.6,16.7,14.5,23.82C64.19,312.63,72.26,317.12,74.19,327.22Z" style="fill:#263238;opacity:0.1"></path><path d="M59.41,299.54a20.46,20.46,0,0,1,5.9,9.73,0,0,0,0,1,0,0,23.87,23.87,0,0,0-5.93-9.66C59.27,299.58,59.35,299.49,59.41,299.54Z" style="fill:#263238"></path><path d="M74.19,327.22s-16-3.82-23.37-14.57c-7-10.27-9.3-27.76-9.48-29.3,0-.07,0-.11,0-.11S49,294.16,57.08,297,76.51,309.37,74.19,327.22Z" style="fill:#FFC727"></path><path d="M44.16,289.26a66.21,66.21,0,0,0,5,8.47,33.66,33.66,0,0,0,6.6,6.78c2.17,1.73,4.47,3.3,6.68,5a.22.22,0,0,1,0-.08c-.42-.61-.86-1.21-1.32-1.79-.91-1.17-1.92-2.28-2.92-3.37-2-2.16-4-4.28-5.81-6.62a23.84,23.84,0,0,1-2.57-4.14c0-.06.08-.1.11,0,2.6,5.41,7.79,8.87,11.49,13.45a22.23,22.23,0,0,1,1.48,2,8.15,8.15,0,0,1,.92,1.63,33.28,33.28,0,0,1,5.47,5.53,21.43,21.43,0,0,0-.64-3.11,15.6,15.6,0,0,0-1.7-4.06c0-.07.06-.13.1-.07a19.65,19.65,0,0,1,1.87,4,14.23,14.23,0,0,1,.58,3.46v0a30.45,30.45,0,0,1,2.16,3.36c-.06-.34-.13-.68-.2-1-.31-1.59-.67-3.18-1.08-4.76a28.64,28.64,0,0,0-3.85-9,.06.06,0,1,1,.09-.07,34.16,34.16,0,0,1,4.27,8.83c.51,1.57.92,3.17,1.28,4.78.18.79.34,1.58.49,2.38.08.41.17.83.23,1.25A57.49,57.49,0,0,1,76.5,333a159.54,159.54,0,0,1,3.41,20.26A169.85,169.85,0,0,1,81,374.72c0,.9-.07,1.8-.12,2.7,0,.23-.36.26-.37,0-.16-3.56-.25-7.11-.46-10.67s-.52-7.1-.9-10.64a190.4,190.4,0,0,0-3.34-20.71c-1.3-5.86-3-11.76-6.18-16.89a32,32,0,0,0-5.78-6.87c-2.25-2-4.71-3.79-7.07-5.65a38.35,38.35,0,0,1-6.49-6.24,50.52,50.52,0,0,1-5.1-8.27c-.38-.73-.76-1.45-1.15-2.17C44,289.26,44.13,289.2,44.16,289.26Z" style="fill:#263238"></path><path d="M46.93,291.61a53.48,53.48,0,0,0,3.57,6.24,0,0,0,0,1-.08,0,44,44,0,0,1-3.6-6.25C46.78,291.58,46.9,291.55,46.93,291.61Z" style="fill:#263238"></path><path d="M133,320.14s.25,22.76-13.36,29.34-20.91,1.09-30.16,3.3v0c.36-.54,7-10,17.46-12.64C117.74,337.43,129.71,329.62,133,320.14Z" style="fill:#FFC727"></path><path d="M133,320.14s.25,22.76-13.36,29.34-20.91,1.09-30.16,3.3v0A51.89,51.89,0,0,1,105,348.2C113.54,347.17,129.94,341.57,133,320.14Z" style="opacity:0.1"></path><path d="M88.57,353.18A23.15,23.15,0,0,1,94,349.51l.89-.37c.15-.19.3-.36.46-.53.41-.42.83-.83,1.28-1.21a18.88,18.88,0,0,1,2.74-2c2.26-1.33,4.73-2.25,7-3.49.07,0,.13.07.06.11-1.14.59-2.24,1.24-3.35,1.89s-2.18,1.23-3.23,1.91a23.14,23.14,0,0,0-2.7,2c-.24.21-.47.43-.7.67a36.7,36.7,0,0,1,4.6-1.23c2.5-.5,5-.86,7.5-1.39a33.65,33.65,0,0,0,3.61-1c1.13-.91,2.26-1.82,3.33-2.8a27.69,27.69,0,0,0,3.52-3.9c0-.06.15,0,.1.06a41.75,41.75,0,0,1-5.58,6.16c.59-.23,1.17-.46,1.74-.72a28.1,28.1,0,0,0,11.6-9.66c0-.06.14,0,.1.07a32,32,0,0,1-9.38,9,29,29,0,0,1-5.93,2.8,54.79,54.79,0,0,1-7.37,1.74,52.64,52.64,0,0,0-7.22,1.72,22,22,0,0,0-6,3.18,28.35,28.35,0,0,0-8.15,10.12,50.89,50.89,0,0,0-4.5,16.65c0,.24-.4.24-.39,0C78.63,369.79,81.19,359.83,88.57,353.18Z" style="fill:#263238"></path><path d="M104.37,345.76a7.86,7.86,0,0,1,2.8-2.54,10.15,10.15,0,0,0,3.32-2.75c.05-.06.15,0,.11.06a11.52,11.52,0,0,1-2.94,2.63,10.43,10.43,0,0,0-3.21,2.65C104.42,345.86,104.33,345.81,104.37,345.76Z" style="fill:#263238"></path><polygon points="97.14 369.99 96.53 382.51 94.63 420.76 66.07 420.76 64.17 382.51 63.55 369.99 97.14 369.99" style="fill:#37474f"></polygon><polygon points="97.14 369.99 96.53 382.51 64.17 382.51 63.55 369.99 97.14 369.99" style="fill:#263238"></polygon><rect x="61.55" y="364.76" width="37.6" height="11.94" style="fill:#37474f"></rect></g><g id="freepik--Character--inject-51"><path d="M166.39,369.05c0-41.4,27-75.09,60.16-75.09s60.16,33.69,60.16,75.09-27,75.09-60.16,75.09S166.39,410.45,166.39,369.05Zm6,0c0,38.08,24.29,69.07,54.14,69.07s54.14-31,54.14-69.07S256.4,300,226.55,300,172.41,331,172.41,369.05Z" style="fill:#263238"></path><path d="M168.58,369.05c0-36.7,23.88-66.56,53.22-66.56S275,332.35,275,369.05s-23.88,66.56-53.23,66.56S168.58,405.75,168.58,369.05Zm4.3,0c0,34.33,22,62.26,48.92,62.26s48.93-27.93,48.93-62.26-22-62.26-48.93-62.26S172.88,334.72,172.88,369.05Z" style="fill:#c7c7c7"></path><path d="M215.23,369.05c0,6,3.86,10.88,8.62,10.88s8.63-4.87,8.63-10.88-3.86-10.88-8.63-10.88S215.23,363,215.23,369.05Z" style="fill:#c7c7c7"></path><ellipse cx="221.09" cy="369.05" rx="8.63" ry="10.88" style="fill:#dbdbdb"></ellipse><rect x="142.95" y="366.9" width="78.14" height="4.3" style="fill:#c7c7c7"></rect><ellipse cx="311.59" cy="432.04" rx="11.22" ry="14.16" style="fill:#c7c7c7"></ellipse><ellipse cx="307.99" cy="432.04" rx="11.22" ry="14.16" style="fill:#dbdbdb"></ellipse><rect x="220.79" y="269.32" width="88.9" height="34.32" transform="translate(530.48 572.97) rotate(180)" style="fill:#a6a6a6"></rect><path d="M235.2,386.21h74.49v-4.3H235.2A12.24,12.24,0,0,1,223,369.69V183.2a16.54,16.54,0,0,0-16.52-16.52h-10V171h10a12.23,12.23,0,0,1,12.22,12.22V369.69A16.54,16.54,0,0,0,235.2,386.21Z" style="fill:#c7c7c7"></path><path d="M307.54,417.89h4.3V267.55A14.89,14.89,0,0,0,297,252.68H220.83V257H297a10.59,10.59,0,0,1,10.57,10.57Z" style="fill:#c7c7c7"></path><rect x="183.11" y="164.4" width="26.64" height="8.55" transform="translate(392.85 337.35) rotate(180)" style="fill:#263238"></rect><rect x="142.95" y="192.93" width="75.95" height="104.04" transform="translate(361.86 489.9) rotate(180)" style="fill:#263238"></rect><path d="M351.49,426.38c-2.46.83-74.73.36-77.4-1.36-.32-.19-.42-6.72-.4-15.67v-.18c0-5.67-1.62-54.1-1.62-54.1l45.23-.25,2.69,47.7s9.75,4.1,18.24,8.17l0,0c5.24,2.49,9.79,4.77,10.83,5.6C351.8,418.5,354,425.58,351.49,426.38Z" style="fill:#d3766a"></path><path d="M351.5,426.38c-2.47.82-74.74.36-77.42-1.36-.32-.18-.41-6.73-.4-15.67v-.17c0-.4,0-.8,0-1.2s0-.58,0-.87,0-.86,0-1.3c-.08-3.76-.26-9.88-.46-16.58l46.08-.17.76,13.46s9.74,4.1,18.24,8.17l0,0c5.23,2.49,9.78,4.77,10.82,5.6C351.79,418.5,354,425.58,351.5,426.38Z" style="fill:#ebebeb"></path><path d="M351.79,426.66c-2.53.82-74.9.18-77.64-1.59-1-.66-2-11.83-.93-24.16l46.65.47s26.7,12.64,29.5,14.9S354.33,425.83,351.79,426.66Z" style="fill:#FFC727"></path><path d="M350.78,423.75c-12.13-.4-61.08-.89-73.1-.37-.1,0-.1.07,0,.08,12,.66,61,.75,73.1.49C351,424,351,423.76,350.78,423.75Z" style="fill:#263238"></path><path d="M323.67,402.63c-4.86-.11-10.5,1.55-13.56,5.5-.11.15.11.32.25.24a67.36,67.36,0,0,1,13.38-5.14A.31.31,0,0,0,323.67,402.63Z" style="fill:#263238"></path><path d="M327.4,404.12c-4.85-.11-10.5,1.56-13.55,5.5-.12.15.1.32.25.25a66.33,66.33,0,0,1,13.38-5.15A.31.31,0,0,0,327.4,404.12Z" style="fill:#263238"></path><path d="M331.14,405.62c-4.86-.11-10.5,1.55-13.55,5.5-.12.15.1.31.24.24a67.22,67.22,0,0,1,13.39-5.14A.31.31,0,0,0,331.14,405.62Z" style="fill:#263238"></path><path d="M334.87,407.11c-4.85-.11-10.5,1.56-13.55,5.5-.12.15.1.32.25.25A66.56,66.56,0,0,1,335,407.71.31.31,0,0,0,334.87,407.11Z" style="fill:#263238"></path><path d="M274.15,425.07c1.48,1,23.47,1.58,43.68,1.82L296,401.14l-22.81-.23C272.12,413.24,273.1,424.4,274.15,425.07Z" style="opacity:0.1"></path><path d="M174.41,217.27l36,.69,7.17,17.91s67.86,9.08,84,30.75c18.55,24.89,23.32,133.53,23.32,133.53l-53.43-1s-6.6-96.14-12-103.55-81.62-14.67-96.31-26.06S159.6,217,159.6,217Z" style="fill:#37474f"></path><path d="M272.17,389.35a46,46,0,0,1,4.84-.24l4.8-.09c3.28,0,6.56,0,9.84,0,6.57,0,13.12.08,19.68.24,1.84,0,3.68.06,5.52.14s3.7.1,5.52.35c.07,0,.11.13,0,.15a88.19,88.19,0,0,1-9.62.33c-3.28,0-6.56.07-9.84.06q-9.84,0-19.68-.15c-1.84,0-3.68-.09-5.52-.15a50.78,50.78,0,0,1-5.52-.32C272,389.64,272,389.37,272.17,389.35Z" style="fill:#263238"></path><path d="M166.26,262.5c11.22,4.85,23.17,7.8,35.15,10.05s24.24,3.81,36.36,5.64c6.09.92,12.29,1.72,18.19,3.55a20.36,20.36,0,0,1,7.32,3.48c2.13,1.81,3,4.39,3.58,7,1.28,6.3,2.19,12.71,3.16,19.07s1.86,13,2.71,19.45c1.69,13.08,3.12,26.18,4.55,39.29.17,1.58.32,3.16.47,4.74,0,.17-.23.23-.25.06-1.68-12.9-3.16-25.82-4.86-38.72s-3.53-25.79-5.7-38.62c-.48-2.84-.74-5.93-1.9-8.6s-3.44-4.23-6.05-5.31c-5.69-2.36-11.91-3.25-18-4.22-11.95-1.9-24-3.4-35.87-5.59a191.77,191.77,0,0,1-34.85-9.51c-1.38-.53-2.74-1.09-4.1-1.67C166.13,262.6,166.17,262.46,166.26,262.5Z" style="fill:#263238"></path><path d="M312.59,427c-2.46.82-74.74.36-77.41-1.36-.32-.19-.41-6.73-.4-15.67v-.18c0-5.67-1.62-54.11-1.62-54.11l45.24-.25,2.69,47.71s9.75,4.09,18.24,8.16l0,0c5.24,2.49,9.78,4.77,10.83,5.6C312.89,419.15,315.05,426.23,312.59,427Z" style="fill:#d3766a"></path><path d="M312.59,427c-2.46.82-74.73.36-77.41-1.37-.32-.18-.41-6.72-.4-15.66v-.17c0-.4,0-.8,0-1.21s0-.58,0-.87,0-.85,0-1.29c-.09-3.76-.26-9.88-.47-16.58l46.08-.17.76,13.46s9.75,4.1,18.24,8.16c0,0,0,0,0,0,5.24,2.5,9.79,4.78,10.83,5.61C312.89,419.15,315.05,426.23,312.59,427Z" style="fill:#ebebeb"></path><path d="M312.89,427.31c-2.54.82-74.9.18-77.65-1.59-1-.67-2-11.83-.93-24.16L281,402s26.69,12.64,29.49,14.9S315.42,426.48,312.89,427.31Z" style="fill:#FFC727"></path><path d="M311.88,424.4c-12.13-.4-61.09-.89-73.1-.37-.1,0-.1.07,0,.07,12,.67,61,.76,73.11.5C312.13,424.6,312.13,424.41,311.88,424.4Z" style="fill:#263238"></path><path d="M284.76,403.28c-4.85-.11-10.5,1.55-13.55,5.49-.12.16.1.32.25.25a66.89,66.89,0,0,1,13.38-5.14A.31.31,0,0,0,284.76,403.28Z" style="fill:#263238"></path><path d="M288.5,404.77c-4.86-.11-10.5,1.56-13.55,5.5-.12.15.1.32.24.24a67.22,67.22,0,0,1,13.39-5.14A.31.31,0,0,0,288.5,404.77Z" style="fill:#263238"></path><path d="M292.23,406.27c-4.85-.11-10.5,1.55-13.55,5.49-.12.16.1.32.25.25a67.54,67.54,0,0,1,13.38-5.15A.3.3,0,0,0,292.23,406.27Z" style="fill:#263238"></path><path d="M296,407.76c-4.86-.11-10.5,1.55-13.55,5.5-.12.15.1.32.24.24a67.22,67.22,0,0,1,13.39-5.14A.31.31,0,0,0,296,407.76Z" style="fill:#263238"></path><path d="M284.19,400.76,232,400.6s6-102.42-3.78-109.55c-8.48-6.21-51.68-7.74-73.13-23.24-17.42-12.59-2-52.41-2-52.41l46.85.89s6.32,14.64,7.37,19.06c0,0,50.85,13.9,65,31.84C288.2,287.29,284.19,400.76,284.19,400.76Z" style="fill:#37474f"></path><path d="M233.24,391.67a47.26,47.26,0,0,1,4.76-.24l4.72-.09c3.23-.06,6.45,0,9.68,0,6.44,0,12.89.06,19.34.21,1.81,0,3.62.06,5.42.14s3.63.1,5.42.34c.08,0,.11.14,0,.15a85.29,85.29,0,0,1-9.46.34c-3.22,0-6.45.07-9.67.08q-9.68,0-19.35-.13c-1.8,0-3.61-.1-5.42-.15a49,49,0,0,1-5.42-.32C233.12,392,233,391.7,233.24,391.67Z" style="fill:#263238"></path><path d="M207.42,234.51a371.68,371.68,0,0,1,39,15.22c5.72,2.58,11.56,5.11,16.8,8.61a35.2,35.2,0,0,1,11.65,12.6,54.78,54.78,0,0,1,5.26,16.52c1.09,6.27,1.64,12.64,2.23,19,1.34,14.25,2.25,28.54,2.57,42.84s.11,28.71-.58,43.05c-.09,1.8-.22,3.61-.32,5.41a.1.1,0,0,1-.19,0c.53-14.13.43-28.32.08-42.45S282.8,327,281.62,312.9c-.57-6.75-1.16-13.52-2.05-20.23a71.1,71.1,0,0,0-3.94-16.85,33.41,33.41,0,0,0-10-13.94c-4.68-3.79-10.16-6.46-15.61-9-12.49-5.72-25.26-10.84-38.22-15.42-1.61-.57-3.22-1.13-4.82-1.71A.67.67,0,0,1,207.42,234.51Z" style="fill:#263238"></path><path d="M155.78,223.84c.47-1.83,1-3.64,1.6-5.43a.16.16,0,0,1,.3.09,101.45,101.45,0,0,0-4,22.53,46.1,46.1,0,0,0,.41,11,19.62,19.62,0,0,0,4.64,9.37c4.61,4.82,11.06,7.95,17.3,9.93,7.12,2.25,14.48,3.65,21.74,5.34,7.55,1.75,31.57,8.05,33.17,8.73a5.53,5.53,0,0,1,3,2.7,23.6,23.6,0,0,1,1.41,4.75c3.57,14.61,3.9,28.48,4,43.43.07,15.8-.2,31.59-.91,47.37-.08,1.91-.17,3.82-.23,5.73a.1.1,0,0,1-.2,0c.24-7.92.22-15.86.24-23.78s.08-15.86.08-23.79c0-15.15.05-29.25-2.85-44.18-.37-1.9-1.93-9.11-3.09-10.31s-25.49-7.47-33.09-9.23c-7.26-1.67-14.6-3.06-21.75-5.15-6.28-1.83-13.12-4.88-18.17-9.17a20.07,20.07,0,0,1-5.05-7.64A25.11,25.11,0,0,1,152.83,246,97.65,97.65,0,0,1,155.78,223.84Z" style="fill:#263238"></path><path d="M159,234c3.49-1.15,7.7-1.63,10.51-4.23a9.65,9.65,0,0,0,2.56-4.52,20.39,20.39,0,0,0,.58-3A29.68,29.68,0,0,0,173,219a.1.1,0,0,1,.2,0c0,1.19.24,2.37.22,3.57a16,16,0,0,1-.34,3.16,10.12,10.12,0,0,1-2.56,5,10.31,10.31,0,0,1-5.06,2.53,34.65,34.65,0,0,1-6.46,1.11C158.82,234.39,158.83,234.08,159,234Z" style="fill:#263238"></path><path d="M204.76,170.65c7.68,25.15,10.47,43.54,18,47.82,6.11,3.46,14.5,5.61,23.08,6.94a209.81,209.81,0,0,0,27.64,2.08c2.85,0,5.22,0,6.9,0,4.16,0,9.12-27.82,6-31-.73-.72-3.5-1.13-7.36-1.36-13-.76-38.41.56-40-.79s-13.4-18.09-23.75-33.79C205.35,145.62,199.88,154.67,204.76,170.65Z" style="fill:#d3766a"></path><path d="M271.93,225.33a98.16,98.16,0,0,0,12.62,3.72c3.41.62,13.26,2.13,14.31-1.56.72-2.51-5-4.08-9-5.28-2.11-.63-4.81-2.48-4.35-3.84.8-2.38,6.24-.64,9.86,1,7,3.16,16.53,9.16,20.22,5.38,1.39-1.42-.62-3.55-3.45-5.54,4.49,2.2,9.2,3.9,10.81,2.38a2.24,2.24,0,0,0,.18-3.06,3,3,0,0,0,3.19-.85c1.22-1.57.34-3.61-1.39-5.62a1.62,1.62,0,0,0,1.16-1c2.44-4.72-13.37-15.89-18.5-16.56-15.12-2-30.67.93-30.67.93C271.64,200.7,271.92,225.32,271.93,225.33Z" style="fill:#d3766a"></path><path d="M292.19,209.34a24.21,24.21,0,0,1,10.23,2.76c3.69,2,6.75,5,10.21,7.3.09.06,0,.21-.1.14-1.64-1.23-3.41-2.3-5.1-3.46s-3.27-2.32-5-3.34a23.91,23.91,0,0,0-10.25-3.34S292.15,209.33,292.19,209.34Z" style="fill:#263238"></path><path d="M294.29,202.79a60,60,0,0,1,11.85,2.78c4.15,1.6,7.57,4.55,10.93,7.38q3,2.55,5.93,5.24c.08.07,0,.22-.11.14q-5.11-4.4-10.49-8.48a31.65,31.65,0,0,0-11.12-5.5c-2.31-.62-4.66-1-7-1.49C294.24,202.85,294.24,202.78,294.29,202.79Z" style="fill:#263238"></path><path d="M297.86,196.89c3.85.38,7.2.7,10.74,2.38,4.7,2.21,9.43,6.27,11.09,7.71,1.83,1.59,3.61,3.24,5.37,4.92.07.07-.05.2-.12.13a126.37,126.37,0,0,0-12.67-10.19,25.29,25.29,0,0,0-6.86-3.51,44.05,44.05,0,0,0-7.55-1.41S297.84,196.89,297.86,196.89Z" style="fill:#263238"></path><path d="M266.87,229l9.71-34.58s-34.67.85-37-.44-15.15-21.52-24.75-35c-7.54-10.63-15.92-9.26-10.58,12.78,5.63,23.24,10.26,41.52,16.51,46.53C231.31,226.7,266.87,229,266.87,229Z" style="fill:#FFC727"></path><path d="M266.68,210.74a3.06,3.06,0,0,1,1.6-.08,1.51,1.51,0,0,1,1,1.4,1.2,1.2,0,0,0,.55,1,1.38,1.38,0,0,0,.63.21,6.75,6.75,0,0,1,.76.14,2.67,2.67,0,0,1-1.59.06,1.53,1.53,0,0,1-.94-1.43,1.22,1.22,0,0,0-.59-1,1.34,1.34,0,0,0-.64-.18C267.19,210.84,266.94,210.81,266.68,210.74Zm-42.92-14.59a1.3,1.3,0,0,1,.64.18,1.16,1.16,0,0,1,.58,1,1.54,1.54,0,0,0,.94,1.43,2.78,2.78,0,0,0,1.6-.06c-.26-.07-.51-.1-.76-.15a1.24,1.24,0,0,1-.63-.2,1.2,1.2,0,0,1-.55-1,1.52,1.52,0,0,0-1-1.4A3,3,0,0,0,223,196C223.25,196.07,223.5,196.1,223.76,196.15Zm22.85,13.22a1.3,1.3,0,0,1,.64.19,1.16,1.16,0,0,1,.58,1,1.53,1.53,0,0,0,.94,1.42,2.62,2.62,0,0,0,1.6-.06c-.26-.06-.51-.09-.76-.14a1.16,1.16,0,0,1-.63-.21,1.2,1.2,0,0,1-.55-1,1.53,1.53,0,0,0-1-1.4,2.92,2.92,0,0,0-1.59.09C246.1,209.29,246.36,209.32,246.61,209.37ZM231,210.58a1.41,1.41,0,0,1-.59.33,1.19,1.19,0,0,1-1.12-.3,1.53,1.53,0,0,0-1.67-.34c-.58.25-.8.75-1.09,1.16a7.14,7.14,0,0,0,.64-.43,1.33,1.33,0,0,1,.59-.3,1.21,1.21,0,0,1,1.12.34,1.5,1.5,0,0,0,1.69.29,2.9,2.9,0,0,0,1.06-1.18C231.37,210.28,231.17,210.44,231,210.58Zm-6.34-27.28a1.32,1.32,0,0,1-.59.32,1.19,1.19,0,0,1-1.12-.29,1.53,1.53,0,0,0-1.67-.35c-.58.26-.79.76-1.08,1.17.22-.13.42-.29.63-.43a1.23,1.23,0,0,1,.59-.3,1.21,1.21,0,0,1,1.12.34,1.52,1.52,0,0,0,1.69.29c.57-.28.77-.77,1.07-1.18C225,183,224.83,183.16,224.62,183.3Zm34.9,39.48a1.44,1.44,0,0,1-.59.32,1.19,1.19,0,0,1-1.12-.29,1.53,1.53,0,0,0-1.67-.35,2.77,2.77,0,0,0-1.09,1.17c.23-.13.43-.29.64-.43a1.23,1.23,0,0,1,.59-.3,1.19,1.19,0,0,1,1.12.34,1.52,1.52,0,0,0,1.69.29,3,3,0,0,0,1.06-1.18C259.93,222.48,259.73,222.63,259.52,222.78Zm-16.78-28.36a1.24,1.24,0,0,1-1.18,1.14,1.53,1.53,0,0,0-1.43.93,2.78,2.78,0,0,0,.06,1.6c.07-.25.1-.51.15-.76a1.27,1.27,0,0,1,.2-.63,1.2,1.2,0,0,1,1-.55,1.51,1.51,0,0,0,1.4-1,1.62,1.62,0,0,0,.08-.71Zm-27.58-23.95a1.3,1.3,0,0,1-.19.64,1.18,1.18,0,0,1-1,.58,1.54,1.54,0,0,0-1.43.94,2.66,2.66,0,0,0,.06,1.59c.06-.25.09-.5.14-.75a1.24,1.24,0,0,1,.21-.63,1.2,1.2,0,0,1,1-.55,1.52,1.52,0,0,0,1.4-1,3,3,0,0,0-.08-1.59C215.24,170,215.21,170.21,215.16,170.47Zm23.35,48.78a1.41,1.41,0,0,1-.18.64,1.19,1.19,0,0,1-1,.58,1.54,1.54,0,0,0-1.43.94A2.7,2.7,0,0,0,236,223c.07-.26.09-.51.14-.76a1.24,1.24,0,0,1,.21-.63,1.2,1.2,0,0,1,1-.55,1.52,1.52,0,0,0,1.4-1,3,3,0,0,0-.08-1.59C238.59,218.74,238.56,219,238.51,219.25Zm-26.89-64.1-.19.13a1.17,1.17,0,0,1-.59.31,1.23,1.23,0,0,1-1.11-.34A1.52,1.52,0,0,0,208,155a3,3,0,0,0-1.07,1.19,7.23,7.23,0,0,0,.64-.44,1.32,1.32,0,0,1,.59-.32,1.17,1.17,0,0,1,1.11.3A1.56,1.56,0,0,0,211,156a1.67,1.67,0,0,0,.78-.72Zm.64,44a1.17,1.17,0,0,1-.59.31h-.14a4.11,4.11,0,0,0,.15.46.28.28,0,0,0,.13,0c.59-.25.8-.76,1.09-1.17C212.67,198.81,212.48,199,212.26,199.11Zm46.86,1.09a1.35,1.35,0,0,1,.59-.33,1.19,1.19,0,0,1,1.12.3,1.52,1.52,0,0,0,1.67.34c.58-.25.79-.75,1.08-1.16-.22.13-.42.28-.63.43a1.33,1.33,0,0,1-.59.3,1.21,1.21,0,0,1-1.12-.34,1.52,1.52,0,0,0-1.69-.29,2.93,2.93,0,0,0-1.07,1.18C258.71,200.5,258.91,200.34,259.12,200.2Z" style="fill:#fff"></path><path d="M265,211.42q1.15-4.08,2.24-8.17c.74-2.81,1.25-5.7,2.07-8.49,0-.12-.15-.15-.18,0-.78,2.78-1.86,5.5-2.72,8.27s-1.64,5.38-2.42,8.09c-1.55,5.46-3.15,10.95-4.33,16.5,0,.17.23.26.29.09C261.92,222.36,263.47,216.86,265,211.42Z" style="fill:#263238"></path><path d="M239,225.13c-7.41-1.62-14.4-3.86-18.18-6.89-6.25-5-10.88-23.29-16.51-46.53-4.28-17.64.25-22,6.09-17.64Z" style="fill:#263238"></path><path d="M217,234c-1.71,1.34-68.86-1-69.14-1.43-.75-1.3,18.2-62.29,47-81,5.08-3.29,12.71-.88,16,1.77,1.64,1.33,6.36,11.31,6.92,19.41S218,233.11,217,234Z" style="fill:#FFC727"></path><path d="M198.15,162.91a3,3,0,0,1,1.59-.08,1.52,1.52,0,0,1,1,1.4,1.2,1.2,0,0,0,.55,1,1.24,1.24,0,0,0,.63.2c.25,0,.5.08.75.15a2.66,2.66,0,0,1-1.59.06,1.54,1.54,0,0,1-.94-1.43,1.19,1.19,0,0,0-.58-1,1.3,1.3,0,0,0-.64-.18C198.65,163,198.4,163,198.15,162.91ZM209.9,212.1a1.42,1.42,0,0,1,.65.19,1.21,1.21,0,0,1,.58,1,1.54,1.54,0,0,0,.94,1.43,2.75,2.75,0,0,0,1.59-.06c-.25-.07-.5-.1-.76-.15a1.27,1.27,0,0,1-.63-.2,1.22,1.22,0,0,1-.55-1,1.54,1.54,0,0,0-1-1.41,2.92,2.92,0,0,0-1.59.09C209.4,212,209.65,212.05,209.9,212.1Zm-33.77-29a1.42,1.42,0,0,1,.65.19,1.21,1.21,0,0,1,.58,1,1.54,1.54,0,0,0,.94,1.43,2.75,2.75,0,0,0,1.59-.06c-.25-.07-.5-.1-.76-.15a1.27,1.27,0,0,1-.63-.2,1.24,1.24,0,0,1-.55-1,1.54,1.54,0,0,0-1-1.41,2.92,2.92,0,0,0-1.59.09C175.63,183,175.88,183,176.13,183.05Zm29.5,45.33a1.31,1.31,0,0,1,.65.18,1.21,1.21,0,0,1,.58,1,1.53,1.53,0,0,0,.94,1.43,2.75,2.75,0,0,0,1.59-.06c-.25-.07-.5-.1-.76-.15a1.27,1.27,0,0,1-.63-.2,1.2,1.2,0,0,1-.54-1,1.52,1.52,0,0,0-1-1.4,3,3,0,0,0-1.59.08C205.13,228.3,205.38,228.33,205.63,228.38Zm-14.36-24.15a1.31,1.31,0,0,1,.65.18,1.23,1.23,0,0,1,.58,1,1.54,1.54,0,0,0,.94,1.43,2.66,2.66,0,0,0,1.59-.06c-.25-.07-.5-.1-.75-.15a1.24,1.24,0,0,1-.63-.2,1.2,1.2,0,0,1-.55-1,1.52,1.52,0,0,0-1-1.4,3,3,0,0,0-1.59.08C190.77,204.15,191,204.18,191.27,204.23Zm-27.16,4.47a1.3,1.3,0,0,1,.64.18,1.16,1.16,0,0,1,.58,1,1.54,1.54,0,0,0,.94,1.43,2.75,2.75,0,0,0,1.59-.06c-.25-.07-.5-.1-.75-.15a1.24,1.24,0,0,1-.63-.2,1.2,1.2,0,0,1-.55-1,1.52,1.52,0,0,0-1-1.4,3,3,0,0,0-1.59.08C163.6,208.62,163.85,208.65,164.11,208.7Zm39.67-25a1.34,1.34,0,0,1,.64.19,1.19,1.19,0,0,1,.59,1,1.53,1.53,0,0,0,.93,1.43,2.78,2.78,0,0,0,1.6-.06c-.25-.07-.51-.1-.76-.15a1.27,1.27,0,0,1-.63-.2,1.2,1.2,0,0,1-.55-1,1.51,1.51,0,0,0-1-1.4,2.93,2.93,0,0,0-1.59.08A7.19,7.19,0,0,0,203.78,183.65ZM191.1,154.27l-.17.13h0a1.85,1.85,0,0,1,0,.23,1.42,1.42,0,0,1-.19.64,1.16,1.16,0,0,1-1,.58,1.56,1.56,0,0,0-.67.15,1.61,1.61,0,0,0-.63.55.94.94,0,0,0-.13.24,2.78,2.78,0,0,0,.06,1.6c.07-.26.1-.51.15-.76a1.24,1.24,0,0,1,.2-.63,1.22,1.22,0,0,1,1-.55,1.55,1.55,0,0,0,1.41-1A2,2,0,0,0,191.1,154.27Zm1.53,34.92a1.3,1.3,0,0,1-.19.64,1.16,1.16,0,0,1-1,.58,1.53,1.53,0,0,0-1.42.94,2.62,2.62,0,0,0,.06,1.6c.06-.26.09-.51.14-.76a1.16,1.16,0,0,1,.21-.63,1.2,1.2,0,0,1,1-.55,1.53,1.53,0,0,0,1.41-1,2.92,2.92,0,0,0-.09-1.59C192.71,188.68,192.68,188.94,192.63,189.19Zm-24.47,1.59a1.3,1.3,0,0,1-.19.64,1.18,1.18,0,0,1-1,.58,1.54,1.54,0,0,0-1.43.94,2.66,2.66,0,0,0,.06,1.59c.06-.25.09-.5.14-.75a1.24,1.24,0,0,1,.21-.63,1.2,1.2,0,0,1,1-.55,1.52,1.52,0,0,0,1.4-1,3,3,0,0,0-.08-1.59C168.24,190.27,168.21,190.52,168.16,190.78Zm12.93-23.61a1.31,1.31,0,0,1-.18.65,1.21,1.21,0,0,1-1,.58,1.54,1.54,0,0,0-1.43.94,2.66,2.66,0,0,0,.06,1.59c.07-.25.1-.5.15-.75a1.24,1.24,0,0,1,.2-.63,1.2,1.2,0,0,1,1-.55,1.52,1.52,0,0,0,1.4-1,3,3,0,0,0-.08-1.59C181.17,166.67,181.14,166.92,181.09,167.17Zm34.07,3.3a1.3,1.3,0,0,1-.19.64,1.18,1.18,0,0,1-1,.58,1.54,1.54,0,0,0-1.43.94,2.66,2.66,0,0,0,.06,1.59c.06-.25.09-.5.14-.75a1.24,1.24,0,0,1,.21-.63,1.2,1.2,0,0,1,1-.55,1.52,1.52,0,0,0,1.4-1,3,3,0,0,0-.08-1.59C215.24,170,215.21,170.21,215.16,170.47Zm-32.37,44.94a1.42,1.42,0,0,1-.18.65,1.23,1.23,0,0,1-1,.58,1.54,1.54,0,0,0-1.43.94,2.66,2.66,0,0,0,.06,1.59c.07-.25.09-.5.14-.76a1.38,1.38,0,0,1,.21-.63,1.2,1.2,0,0,1,1-.54,1.52,1.52,0,0,0,1.4-1,3,3,0,0,0-.08-1.59C182.87,214.91,182.84,215.16,182.79,215.41Zm-27.54,1.39a1.42,1.42,0,0,1-.18.65,1.23,1.23,0,0,1-1,.58,1.53,1.53,0,0,0-1.43.94,2.66,2.66,0,0,0,.06,1.59,6.36,6.36,0,0,0,.14-.76,1.38,1.38,0,0,1,.21-.63,1.2,1.2,0,0,1,1-.54,1.54,1.54,0,0,0,1.4-1,3,3,0,0,0-.08-1.59C155.33,216.3,155.3,216.55,155.25,216.8Zm16.07,5.41a1.31,1.31,0,0,1-.18.65,1.18,1.18,0,0,1-1,.58,1.54,1.54,0,0,0-1.43.94,2.75,2.75,0,0,0,.06,1.59c.07-.25.1-.5.15-.75a1.24,1.24,0,0,1,.2-.63,1.2,1.2,0,0,1,1-.55,1.52,1.52,0,0,0,1.4-1,3,3,0,0,0-.08-1.59C171.4,221.71,171.37,222,171.32,222.21ZM212,154.88c-.2.12-.39.27-.59.4a1.17,1.17,0,0,1-.59.31,1.23,1.23,0,0,1-1.11-.34A1.52,1.52,0,0,0,208,155a3,3,0,0,0-1.07,1.19,7.23,7.23,0,0,0,.64-.44,1.32,1.32,0,0,1,.59-.32,1.17,1.17,0,0,1,1.11.3A1.56,1.56,0,0,0,211,156a2.48,2.48,0,0,0,1-1.12A0,0,0,0,0,212,154.88Zm-22.51,20.2a1.3,1.3,0,0,1,.59-.33,1.19,1.19,0,0,1,1.12.3,1.53,1.53,0,0,0,1.67.34c.58-.25.8-.76,1.09-1.17a7.23,7.23,0,0,0-.64.44,1.33,1.33,0,0,1-.59.3,1.24,1.24,0,0,1-1.12-.34,1.52,1.52,0,0,0-1.69-.3,3,3,0,0,0-1.07,1.19C189.1,175.38,189.3,175.22,189.51,175.08Zm-13.84,27.26a1.41,1.41,0,0,1,.59-.33,1.19,1.19,0,0,1,1.12.3,1.52,1.52,0,0,0,1.67.34c.58-.25.79-.75,1.09-1.16a7.14,7.14,0,0,0-.64.43,1.33,1.33,0,0,1-.59.3,1.21,1.21,0,0,1-1.12-.34,1.5,1.5,0,0,0-1.69-.29,2.93,2.93,0,0,0-1.07,1.18C175.26,202.64,175.46,202.48,175.67,202.34Zm6,28.32a1.44,1.44,0,0,1,.59-.32,1.19,1.19,0,0,1,1.12.3A1.55,1.55,0,0,0,185,231c.58-.25.8-.76,1.09-1.17-.23.13-.43.29-.64.43a1.26,1.26,0,0,1-.59.31,1.24,1.24,0,0,1-1.12-.34,1.52,1.52,0,0,0-1.69-.3A2.92,2.92,0,0,0,181,231.1C181.24,231,181.44,230.81,181.65,230.66Zm26.79-31.13a1.35,1.35,0,0,1,.58-.32,1.19,1.19,0,0,1,1.12.3,1.55,1.55,0,0,0,1.67.34c.59-.25.8-.76,1.09-1.17-.23.13-.42.29-.64.43a1.17,1.17,0,0,1-.59.31,1.21,1.21,0,0,1-1.11-.34,1.54,1.54,0,0,0-1.7-.3A3,3,0,0,0,207.8,200C208,199.84,208.22,199.68,208.44,199.53Zm-12.58,19.85a1.38,1.38,0,0,1,.59-.32,1.19,1.19,0,0,1,1.12.29,1.53,1.53,0,0,0,1.67.35,2.77,2.77,0,0,0,1.09-1.17c-.23.13-.43.29-.64.43a1.23,1.23,0,0,1-.59.3,1.19,1.19,0,0,1-1.12-.34,1.52,1.52,0,0,0-1.69-.29,3.07,3.07,0,0,0-1.07,1.18C195.45,219.68,195.65,219.52,195.86,219.38Zm-42.51,11.09a1.37,1.37,0,0,1,.58-.33,1.22,1.22,0,0,1,1.12.3,1.54,1.54,0,0,0,1.67.35c.59-.26.8-.76,1.09-1.17a7.14,7.14,0,0,0-.64.43,1.33,1.33,0,0,1-.59.3,1.21,1.21,0,0,1-1.12-.34,1.52,1.52,0,0,0-1.69-.29,3,3,0,0,0-1.06,1.18C152.93,230.77,153.13,230.61,153.35,230.47Z" style="fill:#fff"></path><path d="M186.36,159.68c-11,12.38-37.15,58.94-28.23,67.06s56.9-4.41,70.28-11.23c4-2-12-26.77-16.77-27.23-4-.38-23.89,9.39-24.5,8.24s2.25-11.06,6.64-28.72C198.83,147.44,191.2,154.21,186.36,159.68Z" style="fill:#d3766a"></path><path d="M231.46,179.63c9.77-1.62,12.53-.54,20-6.29,4.93-3.77,9.46-2.25,6.74,3.61-4.44,9.59-16.6,14.33-21.29,14.76Z" style="fill:#d3766a"></path><path d="M205.68,189.76s10.85-6.41,21.09-9.17c7.07-1.91,22.94-4.35,38.59,10.95,3.71,3.63,6.42,11.43-1.79,7.71-5.84-2.65-8.74-6.09-12.41-7,0,0,2.27,10.33-1.51,13.91a95.87,95.87,0,0,1-10.54,8.64,20.76,20.76,0,0,1-1.8-1.83s-3.84,3-11.25,2.5Z" style="fill:#d3766a"></path><path d="M233.81,179.85c3.46,1.68,10.72,5.38,15.6,10.46,5.43,5.66,14.37,18,10.15,22-3.09,2.91-6.91-1.51-6.91-1.51s2.62,5.89-.75,7.9c-3.07,1.84-5.82-1.76-5.82-1.76s1,3.85-2.32,5.05c-4,1.44-5.36-6.85-10.63-8.85C231.94,212.66,233.81,179.85,233.81,179.85Z" style="fill:#d3766a"></path><path d="M242.49,195.06a31.19,31.19,0,0,1,10.21,15.56c0,.15-.06.27-.13.13a76.62,76.62,0,0,0-10.14-15.64S242.45,195,242.49,195.06Z" style="fill:#263238"></path><path d="M236.94,200.7c2.39,2.09,7.81,9.1,9.26,16.14,0,.16-.07.27-.13.13a82,82,0,0,0-9.19-16.22S236.91,200.67,236.94,200.7Z" style="fill:#263238"></path><path d="M251.16,192.17c3.22.86,5.34,2.37,8.08,4.17a45.4,45.4,0,0,0,4.19,2.5c1.32.67,3.27,1.68,4.62.54a2.59,2.59,0,0,0,.52-2.62,12.62,12.62,0,0,0-1.85-3.59s0-.1.07-.06a18.6,18.6,0,0,1,2,3.19,4.25,4.25,0,0,1,.35,2.48c-.42,1.78-2.49,2.06-4,1.62a14.14,14.14,0,0,1-2.54-1.15c-.79-.42-1.55-.89-2.31-1.37-1.54-1-3-2-4.57-3.06a41.63,41.63,0,0,0-4.64-2.54C251.05,192.25,251.1,192.16,251.16,192.17Z" style="fill:#263238"></path><path d="M258.15,203.24a102.17,102.17,0,0,0-7-11,0,0,0,0,1,.06-.06c2.55,2.29,6.72,8.45,7.71,10.44s2.1,4.47,2.16,6.68c.09,3.34-2.11,4-2.92,4.21a4.26,4.26,0,0,1-2.85-.38,8.64,8.64,0,0,1-2.64-2.36,0,0,0,0,1,.06-.06c1.19,1.28,3.15,2.53,5,2.24a3,3,0,0,0,2-1.16,4,4,0,0,0,.46-2.71A18.16,18.16,0,0,0,258.15,203.24Z" style="fill:#263238"></path><path d="M205.68,189.76,222,221.86s-60.07,15.18-65.57,4.8,16.88-52.18,27.14-64.45c11.89-14.23,13.58-9.54,11.21,2.85-2.49,13-7.45,31.76-7.45,31.76Z" style="fill:#FFC727"></path><path d="M209.15,212a2.92,2.92,0,0,1,1.59-.09,1.54,1.54,0,0,1,1,1.41,1.22,1.22,0,0,0,.55,1,1.27,1.27,0,0,0,.63.2c.26.05.51.08.76.15a2.75,2.75,0,0,1-1.59.06,1.54,1.54,0,0,1-.94-1.43,1.21,1.21,0,0,0-.58-1,1.42,1.42,0,0,0-.65-.19C209.65,212.05,209.4,212,209.15,212Zm-33-28.91a1.42,1.42,0,0,1,.65.19,1.21,1.21,0,0,1,.58,1,1.54,1.54,0,0,0,.94,1.43,2.75,2.75,0,0,0,1.59-.06c-.25-.07-.5-.1-.76-.15a1.27,1.27,0,0,1-.63-.2,1.24,1.24,0,0,1-.55-1,1.54,1.54,0,0,0-1-1.41,2.92,2.92,0,0,0-1.59.09C175.63,183,175.88,183,176.13,183.05Zm15.14,21.18a1.31,1.31,0,0,1,.65.18,1.23,1.23,0,0,1,.58,1,1.54,1.54,0,0,0,.94,1.43,2.66,2.66,0,0,0,1.59-.06c-.25-.07-.5-.1-.75-.15a1.24,1.24,0,0,1-.63-.2,1.2,1.2,0,0,1-.55-1,1.52,1.52,0,0,0-1-1.4,3,3,0,0,0-1.59.08C190.77,204.15,191,204.18,191.27,204.23Zm-27.16,4.47a1.3,1.3,0,0,1,.64.18,1.16,1.16,0,0,1,.58,1,1.54,1.54,0,0,0,.94,1.43,2.75,2.75,0,0,0,1.59-.06c-.25-.07-.5-.1-.75-.15a1.24,1.24,0,0,1-.63-.2,1.2,1.2,0,0,1-.55-1,1.52,1.52,0,0,0-1-1.4,3,3,0,0,0-1.59.08C163.6,208.62,163.85,208.65,164.11,208.7Zm27-54.15-.3.21a1.28,1.28,0,0,1-.17.52,1.16,1.16,0,0,1-1,.58h-.19c-.41.36-.86.77-1.32,1.23a3.66,3.66,0,0,0,.14,1.29c.07-.26.1-.51.15-.76a1.24,1.24,0,0,1,.2-.63,1.22,1.22,0,0,1,1-.55,1.55,1.55,0,0,0,1.41-1A1.82,1.82,0,0,0,191.16,154.55Zm-23,36.23a1.3,1.3,0,0,1-.19.64,1.18,1.18,0,0,1-1,.58,1.54,1.54,0,0,0-1.43.94,2.66,2.66,0,0,0,.06,1.59c.06-.25.09-.5.14-.75a1.24,1.24,0,0,1,.21-.63,1.2,1.2,0,0,1,1-.55,1.52,1.52,0,0,0,1.4-1,3,3,0,0,0-.08-1.59C168.24,190.27,168.21,190.52,168.16,190.78Zm12.93-23.61a1.31,1.31,0,0,1-.18.65,1.21,1.21,0,0,1-1,.58,1.54,1.54,0,0,0-1.43.94,2.66,2.66,0,0,0,.06,1.59c.07-.25.1-.5.15-.75a1.24,1.24,0,0,1,.2-.63,1.2,1.2,0,0,1,1-.55,1.52,1.52,0,0,0,1.4-1,3,3,0,0,0-.08-1.59C181.17,166.67,181.14,166.92,181.09,167.17Zm1.7,48.24a1.42,1.42,0,0,1-.18.65,1.23,1.23,0,0,1-1,.58,1.54,1.54,0,0,0-1.43.94,2.66,2.66,0,0,0,.06,1.59c.07-.25.09-.5.14-.76a1.38,1.38,0,0,1,.21-.63,1.2,1.2,0,0,1,1-.54,1.52,1.52,0,0,0,1.4-1,3,3,0,0,0-.08-1.59C182.87,214.91,182.84,215.16,182.79,215.41Zm-11.47,6.8a1.31,1.31,0,0,1-.18.65,1.18,1.18,0,0,1-1,.58,1.54,1.54,0,0,0-1.43.94,2.75,2.75,0,0,0,.06,1.59c.07-.25.1-.5.15-.75a1.24,1.24,0,0,1,.2-.63,1.2,1.2,0,0,1,1-.55,1.52,1.52,0,0,0,1.4-1,3,3,0,0,0-.08-1.59C171.4,221.71,171.37,222,171.32,222.21Zm20.31-47.59a1.52,1.52,0,0,0-1.69-.3,3,3,0,0,0-1.07,1.19c.23-.13.43-.29.64-.43a1.3,1.3,0,0,1,.59-.33,1.19,1.19,0,0,1,1.12.3,1.55,1.55,0,0,0,1.33.44l.12-.52A1.21,1.21,0,0,1,191.63,174.62Zm-16,27.72a1.41,1.41,0,0,1,.59-.33,1.19,1.19,0,0,1,1.12.3,1.52,1.52,0,0,0,1.67.34c.58-.25.79-.75,1.09-1.16a7.14,7.14,0,0,0-.64.43,1.33,1.33,0,0,1-.59.3,1.21,1.21,0,0,1-1.12-.34,1.5,1.5,0,0,0-1.69-.29,2.93,2.93,0,0,0-1.07,1.18C175.26,202.64,175.46,202.48,175.67,202.34Zm34.65-3.45a1.52,1.52,0,0,0-1.46-.11A3,3,0,0,0,207.8,200c.22-.13.42-.29.64-.44a1.35,1.35,0,0,1,.58-.32,1.19,1.19,0,0,1,1.12.3,1.53,1.53,0,0,0,.69.39Zm-14.46,20.49a1.38,1.38,0,0,1,.59-.32,1.19,1.19,0,0,1,1.12.29,1.53,1.53,0,0,0,1.67.35,2.77,2.77,0,0,0,1.09-1.17c-.23.13-.43.29-.64.43a1.23,1.23,0,0,1-.59.3,1.19,1.19,0,0,1-1.12-.34,1.52,1.52,0,0,0-1.69-.29,3.07,3.07,0,0,0-1.07,1.18C195.45,219.68,195.65,219.52,195.86,219.38Z" style="fill:#fff"></path><path d="M169.18,206a71.92,71.92,0,0,1,8.68-5.41,67.89,67.89,0,0,1,9.27-4c1.81-.65,3.65-1.21,5.48-1.79.06,0,.08.07,0,.09a88.31,88.31,0,0,0-9.37,3.93q-4.56,2.19-9,4.52c-1.69.89-3.33,1.85-5,2.79C169.17,206.12,169.11,206,169.18,206Z" style="fill:#263238"></path><path d="M205.51,189.67c-.3.09-16.68,6-17.22,6.26.07-.26,2.8-9.12,3.21-10.42,0-.13.07-.26.11-.39.29-.58.58-1.16.84-1.76.34-.76.67-1.52,1-2.28,0,0,0,0,0,0-.36.74-.73,1.49-1.09,2.24-.17.34-.33.69-.48,1,.27-.91.52-1.83.78-2.76.4-1.47.76-3,1.12-4.43,0-.05-.06-.06-.08,0-.81,2.59-1.7,5.15-2.51,7.73s-4,12.11-3.94,12.1,18-6.91,18.38-7.06A.12.12,0,0,0,205.51,189.67Z" style="fill:#263238"></path><path d="M207.19,210.85c-1.8-3.59-3.57-7.18-5.5-10.7-1.09-2-2.18-4-3.29-6-.05-.07-.18,0-.15.07,1.67,3.66,3.34,7.34,5.17,10.93s3.61,7.16,5.48,10.71c1.06,2,2.18,4,3.36,5.95,0,0,.09,0,.07,0C210.79,218.06,209,214.45,207.19,210.85Z" style="fill:#263238"></path><path d="M220.68,219c-.18-.25-.38-.19-.23.07.48.9.89,1.91,1.37,2.83-.84.19-1.69.36-2.53.57l-2.92.69q-2.87.68-5.75,1.28-5.82,1.25-11.7,2.23a233.46,233.46,0,0,1-23.71,2.87q-3.33.21-6.68.26c-2.09,0-7.33-.36-8.81-1a6.25,6.25,0,0,1-3.72-4.09,11.52,11.52,0,0,1,.21-6.08c.53-2.09,1.2-4.15,1.85-6.2a175.87,175.87,0,0,1,9.5-23.57q3.13-6.43,6.66-12.66a.08.08,0,0,0-.13-.08q-2.53,3.92-4.78,8c.29-.91.59-1.81.94-2.69,0-.07-.07-.12-.09-.06a33.1,33.1,0,0,0-1.18,3.34,157.1,157.1,0,0,0-7.22,15.17q-2.53,6.15-4.59,12.46c-.7,2.15-1.42,4.33-1.93,6.54a12.15,12.15,0,0,0-.1,6,6.67,6.67,0,0,0,4,4.5c2.6,1,9.79,1.19,14.55,1,4-.2,8-.52,12-1q11.87-1.41,23.59-3.81,3.28-.68,6.54-1.42c1.1-.25,2.2-.5,3.29-.78s3.72-.78,3.62-.95C222.15,221.36,221.35,219.94,220.68,219Z" style="fill:#263238"></path><path d="M208.74,163.7c-3.86.79-10.25-5.26-12.7-10.09-.17-.33,1.58-13.29,1.66-15.89,0-.54,16.21,4.46,16.21,4.46a41.7,41.7,0,0,0-1.88,10C212,152.52,212.46,162.93,208.74,163.7Z" style="fill:#d3766a"></path><path d="M212,152.67c0,.2,0,.44,0,.72a9.29,9.29,0,0,1-1.6,0C201.56,153,198.9,142,198.2,137.72h0l.31.06.68.15.37.09.51.13.27.07.57.15,1.92.53.19.05.5.15c1.36.38,2.82.81,4.2,1.22l.43.13,2.07.62.51.15.29.09.29.09.75.23.4.12.28.09.27.08.86.26a41.34,41.34,0,0,0-1.89,9.95v.36a.37.37,0,0,0,0,.11Z" style="fill:#263238"></path><path d="M199.11,117.05c-2.85,5.35-3.07,22.36.25,26.82,4.82,6.46,14.32,8.86,20.21,2.7,5.72-6,5.62-28.16,1.76-32.37C215.64,108,203.33,109.16,199.11,117.05Z" style="fill:#d3766a"></path><path d="M213.47,130.2s-.09.06-.09.1c0,1.15-.16,2.47-1.2,2.83,0,0,0,.07,0,.06C213.45,133,213.67,131.29,213.47,130.2Z" style="fill:#263238"></path><path d="M212.47,129c-1.84-.17-2.05,3.52-.35,3.68S214,129.13,212.47,129Z" style="fill:#263238"></path><path d="M219.78,130.74c0-.05.09.06.08.1-.1,1.15,0,2.47,1,2.91,0,0,0,.07,0,.06C219.58,133.56,219.5,131.8,219.78,130.74Z" style="fill:#263238"></path><path d="M220.87,129.6c1.85,0,1.78,3.67.07,3.7S219.32,129.63,220.87,129.6Z" style="fill:#263238"></path><path d="M211.11,127.22a15.21,15.21,0,0,0,1.46-.43,2.36,2.36,0,0,0,1.4-.71.77.77,0,0,0-.07-1,1.91,1.91,0,0,0-1.94-.31,2.84,2.84,0,0,0-1.71,1.13A.84.84,0,0,0,211.11,127.22Z" style="fill:#263238"></path><path d="M222.41,127.82a14.37,14.37,0,0,1-1.45-.46,2.55,2.55,0,0,1-1.39-.76.8.8,0,0,1,.1-.95,2,2,0,0,1,2-.25,2.83,2.83,0,0,1,1.68,1.18A.84.84,0,0,1,222.41,127.82Z" style="fill:#263238"></path><path d="M211.5,140.73c.26.29.51.67.93.73a3,3,0,0,0,1.24-.22,0,0,0,0,1,.05.06,1.53,1.53,0,0,1-1.49.54,1.22,1.22,0,0,1-.84-1.06A.06.06,0,0,1,211.5,140.73Z" style="fill:#263238"></path><path d="M212.9,137.37a3.93,3.93,0,0,0,2.5,1.89,5,5,0,0,0,1.4.14h.27l.25,0a.29.29,0,0,0,.25-.24h0a.49.49,0,0,0,0-.12h0v-.1c.07-.88.06-2.22.06-2.22.32.18,1.91,1,1.91.55a59.28,59.28,0,0,0-.83-11.88.11.11,0,0,0-.21,0c-.14,3.67.37,7.35.29,11a6.49,6.49,0,0,0-1.8-.66c-.13,0,.06,2.6,0,3v0a5.42,5.42,0,0,1-4-1.48C212.93,137.21,212.84,137.28,212.9,137.37Z" style="fill:#263238"></path><path d="M216.31,138.93a4.72,4.72,0,0,1-1.94,1.32,2.08,2.08,0,0,1-1.26,0c-.9-.29-.88-1.13-.67-1.84a5,5,0,0,1,.47-1.07A6,6,0,0,0,216.31,138.93Z" style="fill:#263238"></path><path d="M214.37,140.25a2.08,2.08,0,0,1-1.26,0c-.9-.29-.88-1.13-.67-1.84A2.16,2.16,0,0,1,214.37,140.25Z" style="fill:#ff99ba"></path><path d="M198.33,131.51c3.11-.28,2.57-7.89,2.57-7.89s4.72-1,6.84-7.6c0,0,6.23,3.65,11.33,2.55,8-1.72,7.44-12.15,4.37-14.18-4.36-2.88-11.81,1.75-11.81,1.75s-11.6-2.83-14.77,5a5.9,5.9,0,0,0-5.29,6.06C191.4,122.92,196,131.72,198.33,131.51Z" style="fill:#263238"></path><path d="M199.81,124.55a10.53,10.53,0,0,0,5.9-3.47,7.91,7.91,0,0,0,1.6-7.09c0-.13.18-.18.21,0a9.07,9.07,0,0,1-1,7.66,7.38,7.38,0,0,1-6.65,3.18A.12.12,0,0,1,199.81,124.55Z" style="fill:#263238"></path><path d="M191.05,114c1.52-2.06,3.93-2.45,6.32-2.44a.11.11,0,0,1,0,.21c-2.35-.2-4.67,1.45-5.83,3.41s-.8,4.29-.25,6.36a16.7,16.7,0,0,0,7,9.73s0,.13-.06.09a16.74,16.74,0,0,1-7.83-10.65C189.9,118.49,189.66,115.84,191.05,114Z" style="fill:#263238"></path><path d="M211.32,106.53a7.87,7.87,0,0,1,4.31-3.52,9.38,9.38,0,0,1,6.69.46,5.3,5.3,0,0,1,2.92,4.43,9.32,9.32,0,0,1-1.91,6s-.11,0-.08-.05a9.37,9.37,0,0,0,1.47-5.44,4.89,4.89,0,0,0-3-4.23c-3.34-1.36-8.16-1-10.21,2.46A.11.11,0,0,1,211.32,106.53Z" style="fill:#263238"></path><path d="M210.51,135.34a4.91,4.91,0,1,1,5.79-5.15h0a4.91,4.91,0,0,1-5.79,5.15Zm1.67-9a4.65,4.65,0,0,0-1.06-.06,4.24,4.24,0,1,0,1.06.06Z" style="fill:#455a64"></path><path d="M221.75,136c-1.85-.34-3.17-2.54-3-5.1a5.81,5.81,0,0,1,1.26-3.35,3.06,3.06,0,0,1,5.22.34,6,6,0,0,1,.81,3.49c-.18,2.7-2,4.79-4,4.66Zm1.17-9.07-.25,0a2.62,2.62,0,0,0-2.16,1.07,5.24,5.24,0,0,0-1.11,3c-.15,2.34,1.06,4.33,2.71,4.43s3.12-1.7,3.27-4a5.14,5.14,0,0,0-.71-3.1A2.72,2.72,0,0,0,222.92,127Z" style="fill:#455a64"></path><path d="M216.1,130.74l-.39-.53c.78-.57,2.55-1.3,3.67.06l-.51.42C217.87,129.47,216.17,130.69,216.1,130.74Z" style="fill:#455a64"></path><path d="M194.2,130.57l-.56-.34c.16-.26,1.59-2.56,3.06-2.71s10.1,1.28,10.47,1.34l-.1.64c-2.5-.4-9.24-1.43-10.3-1.32S194.59,129.93,194.2,130.57Z" style="fill:#455a64"></path><path d="M200,131.13s-2.79-6-5.44-5.08-1.21,9.12,1.45,10.68a2.93,2.93,0,0,0,4.14-.87Z" style="fill:#d3766a"></path><path d="M195,128.39s-.06.05,0,.08c1.85,1.15,2.58,3.19,3,5.23a1.63,1.63,0,0,0-2.31-.86.06.06,0,0,0,0,.12,1.81,1.81,0,0,1,1.85,1,9,9,0,0,1,.66,1.75c.06.19.4.16.36-.06v-.05C199.05,133,197.7,129.13,195,128.39Z" style="fill:#263238"></path><path d="M212.08,153.26l-4.25,9.52-11.51-12.57L192.81,154s11,19.71,11.1,18.84l4.24-8.14,5.52,6,0-14.47Z" style="fill:#fff"></path><path d="M214.09,163.5c-.07-2.39-.08-4.8-.26-7.18,0-.09-.14-.13-.16,0-.56,2.28-.23,11.42-.32,13.61l0,0c-.22-.26-5.11-5.25-5.17-5.18-.9,1.29-4,7.21-4.23,7.75-1.74-3.13-8.43-14.52-10.51-17.5a.09.09,0,0,0-.15.08c1.52,3.29,10.36,18.63,10.5,18.6a91.66,91.66,0,0,0,4.45-8.61c.82,1.08,5.73,6.7,5.76,6.34A76.15,76.15,0,0,0,214.09,163.5Z" style="fill:#263238"></path><rect x="237.87" y="427.01" width="95.07" height="10.06" style="fill:#263238"></rect><rect x="140.63" y="269.38" width="89.03" height="34.32" transform="translate(370.29 573.08) rotate(180)" style="fill:#a6a6a6"></rect><path d="M155.17,386.26h74.49V382H155.17A12.23,12.23,0,0,1,143,369.74V183.25a16.54,16.54,0,0,0-16.52-16.52h-10V171h10a12.23,12.23,0,0,1,12.22,12.22V369.74A16.54,16.54,0,0,0,155.17,386.26Z" style="fill:#c7c7c7"></path><path d="M227.51,430.73h4.3V267.61a14.9,14.9,0,0,0-14.88-14.88H140.8V257h76.13a10.59,10.59,0,0,1,10.58,10.57Z" style="fill:#c7c7c7"></path><rect x="103.07" y="164.45" width="26.64" height="8.55" transform="translate(232.79 337.46) rotate(180)" style="fill:#263238"></rect><path d="M87.37,369.05c0-41.4,27-75.09,60.16-75.09s60.16,33.69,60.16,75.09-27,75.09-60.16,75.09S87.37,410.45,87.37,369.05Zm6,0c0,38.08,24.29,69.07,54.14,69.07s54.14-31,54.14-69.07S177.38,300,147.53,300,93.39,331,93.39,369.05Z" style="fill:#263238"></path><path d="M89.56,369.05c0-36.7,23.87-66.56,53.22-66.56S196,332.35,196,369.05s-23.87,66.56-53.22,66.56S89.56,405.75,89.56,369.05Zm4.3,0c0,34.33,21.94,62.26,48.92,62.26s48.92-27.93,48.92-62.26-21.94-62.26-48.92-62.26S93.86,334.72,93.86,369.05Z" style="fill:#c7c7c7"></path><ellipse cx="144.82" cy="369.05" rx="8.63" ry="10.88" style="fill:#c7c7c7"></ellipse><ellipse cx="142.05" cy="369.05" rx="8.63" ry="10.88" style="fill:#dbdbdb"></ellipse><ellipse cx="230.59" cy="432.04" rx="11.22" ry="14.16" style="fill:#c7c7c7"></ellipse><ellipse cx="227" cy="432.04" rx="11.22" ry="14.16" style="fill:#dbdbdb"></ellipse></g><g id="freepik--Desk--inject-51"><rect x="61.2" y="229.69" width="377.59" height="16.27" style="fill:#455a64"></rect><rect x="64.63" y="245.96" width="370.74" height="5.28" style="fill:#455a64"></rect><rect x="64.63" y="245.96" width="370.74" height="1.75" style="fill:#263238"></rect><polygon points="78.29 446.2 72.81 446.2 88.74 251.25 102.71 251.25 78.29 446.2" style="fill:#455a64"></polygon><polygon points="102.71 251.25 101.07 264.3 87.68 264.3 88.75 251.25 102.71 251.25" style="fill:#263238"></polygon><polygon points="421.71 446.2 427.19 446.2 411.26 251.25 397.29 251.25 421.71 446.2" style="fill:#455a64"></polygon><polygon points="397.29 251.25 398.93 264.3 412.32 264.3 411.25 251.25 397.29 251.25" style="fill:#263238"></polygon></g><g id="freepik--Device--inject-51"><rect x="227.81" y="226.17" width="78.59" height="3.52" style="fill:#c7c7c7"></rect><rect x="266.85" y="226.17" width="39.56" height="3.52" style="fill:#a6a6a6"></rect><polygon points="271.1 229.69 347.69 229.69 357.71 177.67 281.12 177.67 271.1 229.69" style="fill:#c7c7c7"></polygon><path d="M309.74,203.68a4.2,4.2,0,0,0,4.26,4.66,5.19,5.19,0,0,0,5.07-4.66,4.21,4.21,0,0,0-4.26-4.66A5.2,5.2,0,0,0,309.74,203.68Z" style="fill:#a6a6a6"></path></g><g id="freepik--Lamp--inject-51"><polygon points="400.25 222.95 402.23 222.7 392.07 145.46 355.21 125.23 354.26 126.97 390.23 146.72 400.25 222.95" style="fill:#263238"></polygon><path d="M394,146.09a2.81,2.81,0,1,1-2.81-2.81A2.8,2.8,0,0,1,394,146.09Z" style="fill:#FFC727"></path><path d="M357.93,126.1a2.81,2.81,0,1,1-2.8-2.8A2.8,2.8,0,0,1,357.93,126.1Z" style="fill:#FFC727"></path><polygon points="337.17 126.97 347.8 143.63 355.02 137.19 359.42 133.27 351.45 120.79 346.04 123.13 337.17 126.97" style="fill:#FFC727"></polygon><polygon points="337.17 126.97 347.8 143.63 355.02 137.19 346.04 123.13 337.17 126.97" style="opacity:0.1"></polygon><polygon points="317.13 131.05 335.68 160.09 353.89 143.33 340 121.57 317.13 131.05" style="fill:#FFC727"></polygon><polygon points="383.19 229.69 417.2 229.69 415.12 219.01 385.27 219.01 383.19 229.69" style="fill:#FFC727"></polygon></g><g id="freepik--Drink--inject-51"><polygon points="100.1 200.16 97.75 229.69 81.5 229.69 79.15 200.16 100.1 200.16" style="fill:#FFC727"></polygon><rect x="77.62" y="197.49" width="23.88" height="4.31" style="fill:#455a64"></rect><polygon points="99.86 197.49 79.25 197.49 80.46 192.66 98.66 192.66 99.86 197.49" style="fill:#37474f"></polygon><path d="M95.27,215.19c0,3.83-2.53,6.94-5.64,6.94S84,219,84,215.19s2.52-6.95,5.64-6.95S95.27,211.35,95.27,215.19Z" style="fill:#fff"></path></g></svg>