<?xml version="1.0"?>
<svg xmlns="http://www.w3.org/2000/svg" viewBox="0 0 24 24" enable-background="new 0 0 24 24">
    <path d="M 19.5 1.96875 C 19.325 1.96875 19.15 2.0375 19 2.1875 L 17.8125 3.40625 L 20.59375 6.1875 L 21.8125 5 C 22.1125 4.7 22.1125 4.3 21.8125 4 L 20 2.1875 C 19.85 2.0375 19.675 1.96875 19.5 1.96875 z M 17.09375 4.09375 L 8 13.1875 L 8 16 L 10.8125 16 L 19.90625 6.90625 L 17.09375 4.09375 z M 4 6 C 2.9 6 2 6.9 2 8 L 2 20 C 2 21.1 2.9 22 4 22 L 16 22 C 17.1 22 18 21.1 18 20 L 18 11.1875 L 16 13.1875 L 16 20 L 4 20 L 4 8 L 10.8125 8 L 12.8125 6 L 4 6 z"/>
</svg>
