<svg width="48" height="38" viewBox="0 0 48 38" fill="none" xmlns="http://www.w3.org/2000/svg">
<path d="M4.75 38C3.44375 38 2.32592 37.5353 1.3965 36.6059C0.467083 35.6765 0.00158333 34.5578 0 33.25V4.75C0 3.44375 0.4655 2.32592 1.3965 1.3965C2.3275 0.467083 3.44533 0.00158333 4.75 0H42.75C44.0563 0 45.1749 0.4655 46.1059 1.3965C47.0369 2.3275 47.5016 3.44533 47.5 4.75V33.25C47.5 34.5563 47.0353 35.6749 46.1059 36.6059C45.1765 37.5369 44.0578 38.0016 42.75 38H4.75ZM23.75 21.375L4.75 9.5V33.25H42.75V9.5L23.75 21.375ZM23.75 16.625L42.75 4.75H4.75L23.75 16.625ZM4.75 9.5V4.75V33.25V9.5Z" fill="white"/>
</svg>
