<svg width="55" height="59" viewBox="0 0 55 59" fill="none" xmlns="http://www.w3.org/2000/svg">
<path d="M18.3333 24.2388C18.3333 22.9002 19.3593 21.8149 20.6249 21.8149H34.3749C35.6405 21.8149 36.6666 22.9002 36.6666 24.2388C36.6666 25.5775 35.6405 26.6627 34.3749 26.6627H20.6249C19.3593 26.6627 18.3333 25.5775 18.3333 24.2388Z" fill="#212121"/>
<path d="M20.6249 31.5103C19.3593 31.5103 18.3333 32.5955 18.3333 33.9341C18.3333 35.2728 19.3593 36.358 20.6249 36.358H29.7916C31.0572 36.358 32.0832 35.2728 32.0832 33.9341C32.0832 32.5955 31.0572 31.5103 29.7916 31.5103H20.6249Z" fill="#212121"/>
<path d="M4.60377e-05 29.0865C4.60377e-05 13.0225 12.3122 0 27.5 0C42.6878 0 55 13.0225 55 29.0865C55 45.1505 42.6878 58.1731 27.5 58.1731C22.4876 58.1731 17.7828 56.7527 13.7325 54.2706L3.01643 58.0485C2.20994 58.3331 1.32092 58.1217 0.706842 57.5002C0.092813 56.8782 -0.145292 55.948 0.0882289 55.0831L3.34977 43.0093C1.21367 38.8722 4.60377e-05 34.1261 4.60377e-05 29.0865ZM27.5 4.84776C14.8435 4.84776 4.58338 15.6998 4.58338 29.0865C4.58338 33.6099 5.75268 37.837 7.78767 41.4566C8.11029 42.03 8.19486 42.7194 8.02147 43.3612L5.68878 51.9965L13.2888 49.3172C13.9424 49.0864 14.6595 49.1795 15.2412 49.5698C18.785 51.9481 22.9869 53.3253 27.5 53.3253C40.1564 53.3253 50.4166 42.4731 50.4166 29.0865C50.4166 15.6998 40.1564 4.84776 27.5 4.84776Z" fill="#212121"/>
</svg>
