<svg width="55" height="59" viewBox="0 0 55 59" fill="none" xmlns="http://www.w3.org/2000/svg">
<path d="M55 29.085C55 13.0592 42.6525 0 27.5 0C12.3475 0 0 13.0592 0 29.085C0 37.5196 3.4375 45.1108 8.8825 50.4334C8.8825 50.4625 8.8825 50.4625 8.855 50.4916C9.13 50.7824 9.46 51.0151 9.735 51.2769C9.9 51.4223 10.0375 51.5677 10.2025 51.684C10.6975 52.1203 11.2475 52.5275 11.77 52.9347C11.9625 53.0801 12.1275 53.1965 12.32 53.3419C12.8425 53.72 13.3925 54.069 13.97 54.389C14.1625 54.5053 14.3825 54.6507 14.575 54.7671C15.125 55.087 15.7025 55.3778 16.3075 55.6396C16.5275 55.7559 16.7475 55.8723 16.9675 55.9595C17.5725 56.2213 18.1775 56.454 18.7825 56.6576C19.0025 56.7448 19.2225 56.8321 19.4425 56.8903C20.1025 57.0939 20.7625 57.2684 21.4225 57.4429C21.615 57.501 21.8075 57.5592 22.0275 57.5883C22.7975 57.7628 23.5675 57.8792 24.365 57.9664C24.475 57.9664 24.585 57.9955 24.695 58.0246C25.63 58.1118 26.565 58.17 27.5 58.17C28.435 58.17 29.37 58.1118 30.2775 58.0246C30.3875 58.0246 30.4975 57.9955 30.6075 57.9664C31.405 57.8792 32.175 57.7628 32.945 57.5883C33.1375 57.5592 33.33 57.472 33.55 57.4429C34.21 57.2684 34.8975 57.1229 35.53 56.8903C35.75 56.803 35.97 56.7157 36.19 56.6576C36.795 56.4249 37.4275 56.2213 38.005 55.9595C38.225 55.8723 38.445 55.7559 38.665 55.6396C39.2425 55.3778 39.82 55.087 40.3975 54.7671C40.6175 54.6507 40.81 54.5053 41.0025 54.389C41.5525 54.0399 42.1025 53.72 42.6525 53.3419C42.845 53.2255 43.01 53.0801 43.2025 52.9347C43.7525 52.5275 44.275 52.1203 44.77 51.684C44.935 51.5386 45.0725 51.3932 45.2375 51.2769C45.54 51.0151 45.8425 50.7533 46.1175 50.4916C46.1175 50.4625 46.1175 50.4625 46.09 50.4334C51.5625 45.1108 55 37.5196 55 29.085ZM41.085 43.5402C33.6325 38.2468 21.4225 38.2468 13.915 43.5402C12.705 44.3837 11.715 45.3726 10.89 46.4487C6.71 41.9697 4.125 35.8327 4.125 29.085C4.125 15.4441 14.6025 4.36275 27.5 4.36275C40.3975 4.36275 50.875 15.4441 50.875 29.085C50.875 35.8327 48.29 41.9697 44.11 46.4487C43.3125 45.3726 42.295 44.3837 41.085 43.5402Z" fill="#292D32"/>
<path d="M27.5 14.3379C21.8075 14.3379 17.1875 19.2242 17.1875 25.2448C17.1875 31.1491 21.56 35.9481 27.3625 36.1226H27.61H27.8025H27.8575C33.4125 35.919 37.785 31.1491 37.8125 25.2448C37.8125 19.2242 33.1925 14.3379 27.5 14.3379Z" fill="#292D32"/>
</svg>
