<svg width="49" height="46" viewBox="0 0 49 46" fill="none" xmlns="http://www.w3.org/2000/svg">
<path d="M41.4947 0.649902H6.78887C5.0038 0.65452 3.29327 1.31448 2.03103 2.48559C0.76879 3.65669 0.0574675 5.24372 0.0524902 6.8999V39.0999C0.0574675 40.7561 0.76879 42.3431 2.03103 43.5142C3.29327 44.6853 5.0038 45.3453 6.78887 45.3499H41.4947C43.2813 45.3499 44.9947 44.6914 46.258 43.5193C47.5213 42.3472 48.2311 40.7575 48.2311 39.0999V6.8999C48.2311 5.2423 47.5213 3.65259 46.258 2.48049C44.9947 1.30838 43.2813 0.649902 41.4947 0.649902ZM45.5365 39.0999C45.5288 40.0922 45.1004 41.0419 44.3441 41.7436C43.5878 42.4453 42.5642 42.8427 41.4947 42.8499H6.78887C5.71931 42.8427 4.69575 42.4453 3.93944 41.7436C3.18313 41.0419 2.7548 40.0922 2.74704 39.0999V6.8999C2.7548 5.90757 3.18313 4.95791 3.93944 4.25621C4.69575 3.5545 5.71931 3.1571 6.78887 3.1499H41.4947C42.5642 3.1571 43.5878 3.5545 44.3441 4.25621C45.1004 4.95791 45.5288 5.90757 45.5365 6.8999V39.0999Z" fill="white"/>
<path d="M9.8623 19.8701C9.8623 19.2071 10.174 18.5712 10.7288 18.1024C11.2836 17.6335 12.036 17.3701 12.8206 17.3701C13.6052 17.3701 14.3577 17.6335 14.9125 18.1024C15.4673 18.5712 15.779 19.2071 15.779 19.8701V36.1201C15.779 36.7832 15.4673 37.419 14.9125 37.8879C14.3577 38.3567 13.6052 38.6201 12.8206 38.6201C12.036 38.6201 11.2836 38.3567 10.7288 37.8879C10.174 37.419 9.8623 36.7832 9.8623 36.1201V19.8701Z" fill="white"/>
<path d="M12.8206 12.3601C14.4545 12.3601 15.779 11.2408 15.779 9.86011C15.779 8.4794 14.4545 7.36011 12.8206 7.36011C11.1868 7.36011 9.8623 8.4794 9.8623 9.86011C9.8623 11.2408 11.1868 12.3601 12.8206 12.3601Z" fill="white"/>
<path d="M43.1258 26.4249V36.1249C43.1258 36.7879 42.8141 37.4238 42.2593 37.8927C41.7045 38.3615 40.9521 38.6249 40.1675 38.6249C39.3829 38.6249 38.6304 38.3615 38.0756 37.8927C37.5208 37.4238 37.2091 36.7879 37.2091 36.1249V26.4249C37.2091 25.3541 36.7058 24.3271 35.8098 23.57C34.9138 22.8128 33.6986 22.3874 32.4314 22.3874C31.1643 22.3874 29.9491 22.8128 29.0531 23.57C28.1571 24.3271 27.6537 25.3541 27.6537 26.4249V36.1249C27.6537 36.7879 27.342 37.4238 26.7873 37.8927C26.2325 38.3615 25.48 38.6249 24.6954 38.6249C23.9108 38.6249 23.1583 38.3615 22.6035 37.8927C22.0487 37.4238 21.7371 36.7879 21.7371 36.1249V19.8749C21.7493 19.2151 22.0649 18.5852 22.617 18.1185C23.1692 17.6519 23.9146 17.3852 24.6954 17.3749C25.1965 17.3633 25.6919 17.4664 26.1294 17.6732C26.5668 17.8801 26.93 18.183 27.1804 18.5499C28.8069 17.77 30.6474 17.3648 32.5175 17.3749C34.3876 17.385 36.2217 17.81 37.8363 18.6074C39.4509 19.4049 40.7894 20.5467 41.7177 21.9186C42.646 23.2906 43.1315 24.8445 43.1258 26.4249Z" fill="white"/>
</svg>
