<?xml version="1.0" standalone="no"?>
<!DOCTYPE svg PUBLIC "-//W3C//DTD SVG 20010904//EN"
 "http://www.w3.org/TR/2001/REC-SVG-20010904/DTD/svg10.dtd">
<svg version="1.0" xmlns="http://www.w3.org/2000/svg"
 width="550.000000pt" height="250.000000pt" viewBox="0 0 550.000000 250.000000"
 preserveAspectRatio="xMidYMid meet">

<g transform="translate(0.000000,250.000000) scale(0.100000,-0.100000)"
fill="#000000" stroke="none">
<path d="M2557 2453 c-2 -5 -3 -17 -2 -28 1 -11 2 -127 3 -257 l2 -238 40 0
39 0 0 223 c0 122 0 227 0 232 1 7 464 9 1373 7 755 -1 1379 -2 1386 -2 9 0
12 -236 12 -1145 l0 -1145 -1387 0 -1388 0 2 217 c2 120 0 226 -3 236 -4 14
-14 17 -41 15 l-35 -3 0 -260 0 -260 74 -8 c40 -4 696 -6 1458 -5 l1385 3 0
1210 0 1210 -1457 3 c-801 1 -1459 -1 -1461 -5z"/>
<path d="M195 1820 c-24 -86 -165 -832 -164 -873 l0 -32 14 36 c7 20 30 117
51 215 21 99 40 182 43 185 3 4 83 10 176 14 94 4 174 11 180 16 9 9 -20 11
-235 15 -52 1 -100 3 -106 3 -7 1 3 71 29 200 30 154 43 200 56 204 9 2 104 5
211 6 181 2 210 4 199 15 -2 2 -104 6 -227 8 -191 3 -223 1 -227 -12z"/>
<path d="M804 1816 c-9 -24 0 -51 19 -54 25 -5 47 16 47 44 0 20 -5 24 -30 24
-17 0 -33 -6 -36 -14z"/>
<path d="M2554 1810 c-18 -7 -30 -58 -109 -444 -48 -240 -86 -439 -83 -442 5
-4 412 -8 509 -5 12 1 20 18 28 61 7 33 9 65 6 70 -4 6 -73 10 -171 10 -90 0
-164 3 -164 8 0 4 32 165 70 357 39 193 70 360 70 373 0 21 -4 22 -67 21 -38
0 -77 -4 -89 -9z"/>
<path d="M2097 1750 c-3 -8 -13 -44 -22 -80 -22 -86 -31 -100 -63 -100 -15 0
-38 -3 -50 -7 -33 -8 -8 -23 41 -23 23 0 37 -5 37 -12 0 -7 -18 -101 -40 -208
-46 -222 -57 -322 -41 -363 19 -48 115 -73 176 -45 40 18 29 24 -37 20 -53 -3
-67 -1 -90 18 -37 29 -37 62 7 302 54 293 51 288 154 288 68 0 110 13 74 22
-10 2 -45 6 -78 7 -33 1 -64 6 -69 11 -6 6 -4 36 4 77 12 67 10 126 -3 93z"/>
<path d="M3345 1606 c-77 -19 -120 -44 -175 -99 -93 -93 -130 -188 -130 -328
0 -142 75 -244 198 -270 91 -18 241 5 295 46 18 13 18 16 -9 64 -15 28 -30 51
-34 51 -4 0 -24 -7 -45 -16 -20 -8 -59 -15 -85 -16 -93 0 -150 50 -150 131 l0
41 199 0 199 0 11 50 c27 125 4 248 -56 301 -31 27 -118 60 -152 58 -9 0 -38
-6 -66 -13z m117 -154 c7 -7 14 -38 16 -70 l4 -59 -102 -5 c-56 -3 -115 -2
-132 1 l-30 6 34 50 c48 72 91 98 151 92 27 -2 53 -9 59 -15z"/>
<path d="M4032 1604 c-222 -59 -371 -396 -266 -602 41 -80 81 -105 159 -100
65 4 140 36 177 75 30 32 36 29 40 -19 l3 -42 68 1 c37 0 71 4 74 7 7 7 132
620 133 649 0 14 -10 17 -69 17 -63 0 -70 -2 -86 -26 l-17 -26 -21 20 c-25 24
-105 62 -127 61 -8 0 -39 -7 -68 -15z m129 -157 c33 -23 34 -25 32 -88 -1 -35
-12 -100 -23 -144 -16 -65 -28 -87 -58 -118 -63 -63 -152 -64 -178 -2 -42 102
18 287 115 352 43 29 69 29 112 0z"/>
<path d="M4908 1596 c-20 -7 -56 -25 -81 -39 -25 -15 -48 -27 -51 -27 -2 0 -6
12 -8 28 -3 26 -5 27 -75 30 -61 2 -72 0 -77 -15 -5 -19 -109 -527 -153 -749
-14 -73 -23 -139 -20 -148 9 -22 139 -23 160 -1 13 12 32 98 53 233 4 23 10
45 15 47 4 3 30 -9 58 -26 46 -29 56 -31 111 -26 159 14 301 179 330 381 33
236 -84 375 -262 312z m32 -141 c108 -56 23 -377 -107 -401 -44 -8 -75 1 -105
31 l-26 25 24 111 c37 177 46 194 119 232 38 20 59 21 95 2z"/>
<path d="M1255 1578 c-39 -14 -80 -42 -129 -87 l-38 -36 7 54 c6 42 4 52 -6
49 -14 -5 -128 -543 -128 -608 -1 -58 15 -16 44 120 45 213 65 291 85 329 39
76 137 152 213 165 20 4 37 11 37 16 0 13 -47 11 -85 -2z"/>
<path d="M1553 1576 c-87 -28 -133 -83 -133 -161 0 -68 41 -115 155 -179 86
-49 135 -106 135 -157 0 -41 -47 -106 -93 -128 -82 -40 -175 -24 -256 44 -17
15 -37 25 -43 22 -16 -5 51 -71 94 -93 82 -42 221 -22 277 41 35 40 55 104 47
150 -8 39 -69 99 -158 154 -123 77 -155 141 -108 218 44 73 165 91 253 39 26
-16 51 -25 55 -21 13 12 -47 54 -100 70 -61 18 -70 18 -125 1z"/>
<path d="M775 1548 c-13 -38 -115 -583 -114 -611 1 -19 2 -18 14 8 13 31 125
562 125 595 0 22 -18 27 -25 8z"/>
</g>
</svg>
