<svg width="45" height="45" viewBox="0 0 45 45" fill="none" xmlns="http://www.w3.org/2000/svg">
<path d="M42.5121 30.2821L32.0228 25.5819L31.9938 25.5685C31.4493 25.3356 30.8552 25.2421 30.2655 25.2966C29.6757 25.351 29.1088 25.5516 28.6161 25.8802C28.5581 25.9186 28.5023 25.9602 28.4491 26.0049L23.0297 30.625C19.5963 28.9573 16.0516 25.4394 14.3839 22.0505L19.0107 16.5487C19.0553 16.493 19.0976 16.4374 19.1376 16.3773C19.4592 15.8859 19.6543 15.3226 19.7056 14.7376C19.7569 14.1525 19.6627 13.5639 19.4315 13.0241V12.9973L14.7179 2.49019C14.4123 1.78496 13.8868 1.19749 13.2199 0.815459C12.5529 0.433433 11.7803 0.277349 11.0174 0.370506C8.0003 0.767518 5.23093 2.24921 3.22647 4.53884C1.22202 6.82848 0.119565 9.76947 0.12502 12.8125C0.12502 30.4914 14.5086 44.875 32.1875 44.875C35.2306 44.8805 38.1716 43.778 40.4612 41.7736C42.7508 39.7691 44.2325 36.9998 44.6296 33.9827C44.7229 33.22 44.5671 32.4476 44.1855 31.7807C43.8039 31.1138 43.2169 30.5881 42.5121 30.2821ZM32.1875 41.3125C24.6314 41.3043 17.3871 38.299 12.0441 32.956C6.70109 27.613 3.69577 20.3687 3.68752 12.8125C3.67914 10.6383 4.46248 8.5353 5.89123 6.89635C7.31998 5.2574 9.29646 4.19455 11.4515 3.90629C11.4507 3.91517 11.4507 3.92412 11.4515 3.93301L16.1273 14.3979L11.525 19.9064C11.4783 19.9601 11.4359 20.0174 11.3981 20.0778C11.063 20.592 10.8665 21.184 10.8275 21.7964C10.7885 22.4089 10.9083 23.021 11.1754 23.5735C13.1927 27.6993 17.3497 31.8252 21.5201 33.8402C22.0766 34.1048 22.6923 34.2205 23.307 34.176C23.9216 34.1316 24.5142 33.9284 25.0269 33.5864C25.0841 33.5479 25.1391 33.5062 25.1917 33.4617L30.6044 28.8438L41.0693 33.5307H41.0938C40.809 35.6888 39.7478 37.6693 38.1085 39.1016C36.4693 40.5339 34.3643 41.3199 32.1875 41.3125Z" fill="white"/>
</svg>
